%FSTAX23Y23*%
%MOIN*%
%SFA1B1*%

%IPPOS*%
%ADD17C,0.005984*%
%ADD18C,0.007874*%
%ADD19C,0.002008*%
%ADD20C,0.010000*%
%LNpcb1-1*%
%LPD*%
G54D17*
X0178Y0445D02*
D01*
X01779Y04451*
X01779Y04452*
X01779Y04453*
X01779Y04455*
X01778Y04456*
X01778Y04457*
X01777Y04458*
X01777Y04459*
X01776Y0446*
X01775Y04461*
X01774Y04462*
X01774Y04463*
X01773Y04464*
X01772Y04465*
X01771Y04465*
X01769Y04466*
X01768Y04466*
X01767Y04467*
X01766Y04467*
X01765Y04467*
X01763Y04468*
X01762Y04468*
X01761*
X0176Y04468*
X01758Y04467*
X01757Y04467*
X01756Y04467*
X01755Y04466*
X01754Y04466*
X01753Y04465*
X01751Y04465*
X0175Y04464*
X01749Y04463*
X01749Y04462*
X01748Y04461*
X01747Y0446*
X01746Y04459*
X01746Y04458*
X01745Y04457*
X01745Y04456*
X01744Y04455*
X01744Y04453*
X01744Y04452*
X01744Y04451*
X01744Y0445*
X01744Y04448*
X01744Y04447*
X01744Y04446*
X01744Y04445*
X01745Y04444*
X01745Y04442*
X01746Y04441*
X01746Y0444*
X01747Y04439*
X01748Y04438*
X01749Y04437*
X01749Y04436*
X0175Y04436*
X01751Y04435*
X01753Y04434*
X01754Y04434*
X01755Y04433*
X01756Y04433*
X01757Y04432*
X01758Y04432*
X0176Y04432*
X01761Y04432*
X01762*
X01763Y04432*
X01765Y04432*
X01766Y04432*
X01767Y04433*
X01768Y04433*
X01769Y04434*
X01771Y04434*
X01772Y04435*
X01773Y04436*
X01774Y04436*
X01774Y04437*
X01775Y04438*
X01776Y04439*
X01777Y0444*
X01777Y04441*
X01778Y04442*
X01778Y04444*
X01779Y04445*
X01779Y04446*
X01779Y04447*
X01779Y04448*
X0178Y0445*
X0172Y04485D02*
X01899D01*
Y04184D02*
Y04485D01*
X0172Y04184D02*
X01899D01*
X0172D02*
Y04485D01*
G54D18*
X0125Y0445D02*
X0135D01*
X0125D02*
Y0475D01*
X0135*
Y0445D02*
Y0475D01*
X0125Y0415D02*
Y0435D01*
Y0415D02*
X0135D01*
Y0435*
X0125D02*
X0135D01*
X0225Y0375D02*
Y0395D01*
Y0375D02*
X0235D01*
Y0395*
X0225D02*
X0235D01*
X01809Y04572D02*
Y04603D01*
X0175Y04572D02*
Y04603D01*
X01939Y03969D02*
Y04D01*
X0188Y03969D02*
Y04D01*
X01475Y04404D02*
Y04435D01*
X01534Y04404D02*
Y04435D01*
X0225Y0405D02*
X0235D01*
X0225D02*
Y0475D01*
X0235*
Y0405D02*
Y0475D01*
X01844Y03969D02*
Y04D01*
X01785Y03969D02*
Y04D01*
X01894Y04572D02*
Y04603D01*
X01835Y04572D02*
Y04603D01*
X01565Y04404D02*
Y04435D01*
X01624Y04404D02*
Y04435D01*
G54D19*
X01729Y04476D02*
X0189D01*
Y04193D02*
Y04476D01*
X01729Y04193D02*
X0189D01*
X01729D02*
Y04476D01*
G54D20*
X0125Y0404D02*
X0129D01*
Y0403*
X0125Y0399*
Y0398*
X0131Y0404D02*
X01349D01*
Y0403*
X0131Y0399*
Y0398*
X01369Y0403D02*
X01379Y0404D01*
X01399*
X01409Y0403*
Y0402*
X01399Y0401*
X01389*
X01399*
X01409Y04*
Y0399*
X01399Y0398*
X01379*
X01369Y0399*
X01429Y0398D02*
X01449D01*
X01439*
Y0404*
X01429Y0403*
X0125Y03885D02*
Y03945D01*
X0128*
X0129Y03935*
Y03915*
X0128Y03905*
X0125*
X01349Y03935D02*
X01339Y03945D01*
X01319*
X0131Y03935*
Y03895*
X01319Y03885*
X01339*
X01349Y03895*
X01369Y03945D02*
Y03885D01*
X01399*
X01409Y03895*
Y03905*
X01399Y03915*
X01369*
X01399*
X01409Y03925*
Y03935*
X01399Y03945*
X01369*
X01425Y0383D02*
Y0377D01*
X01455*
X01465Y0378*
Y0382*
X01455Y0383*
X01425*
X01485Y0377D02*
X01504D01*
X01494*
Y0381*
X01485*
X01534Y0377D02*
X01554D01*
X01544*
Y0383*
X01534*
X01584Y0381D02*
Y0378D01*
X01594Y0377*
X01624*
Y0381*
X01644Y0377D02*
Y0383D01*
Y0379D02*
X01674Y0381D01*
X01644Y0379D02*
X01674Y0377D01*
X01714Y0381D02*
X01734D01*
X01744Y038*
Y0377*
X01714*
X01704Y0378*
X01714Y0379*
X01744*
X01824Y0383D02*
Y0377D01*
Y038*
X01864*
Y0383*
Y0377*
X01884D02*
Y0378D01*
X01894*
Y0377*
X01884*
X01899Y0466D02*
Y0472D01*
X01929*
X01939Y0471*
Y0469*
X01929Y0468*
X01899*
X01919D02*
X01939Y0466D01*
X01999Y0471D02*
X01989Y0472D01*
X01969*
X01959Y0471*
Y047*
X01969Y0469*
X01989*
X01999Y0468*
Y0467*
X01989Y0466*
X01969*
X01959Y0467*
X02019Y0472D02*
X02059D01*
X02039*
Y0466*
X02119Y0471D02*
X02109Y0472D01*
X02089*
X02079Y0471*
Y047*
X02089Y0469*
X02109*
X02119Y0468*
Y0467*
X02109Y0466*
X02089*
X02079Y0467*
X02179Y0472D02*
X02139D01*
Y0466*
X02179*
X02139Y0469D02*
X02159D01*
X02199Y0472D02*
Y0466D01*
X02239*
X02059Y04614D02*
X02049Y04624D01*
X02029*
X02019Y04614*
Y04604*
X02029Y04594*
X02049*
X02059Y04584*
Y04574*
X02049Y04564*
X02029*
X02019Y04574*
X02119Y04614D02*
X02109Y04624D01*
X02089*
X02079Y04614*
Y04574*
X02089Y04564*
X02109*
X02119Y04574*
X02139Y04624D02*
Y04564D01*
X02179*
X02199Y04624D02*
Y04564D01*
Y04584*
X02239Y04624*
X02209Y04594*
X02239Y04564*
X02179Y04518D02*
X02169Y04528D01*
X02149*
X02139Y04518*
Y04478*
X02149Y04468*
X02169*
X02179Y04478*
X02239Y04518D02*
X02229Y04528D01*
X02209*
X02199Y04518*
Y04508*
X02209Y04498*
X02229*
X02239Y04488*
Y04478*
X02229Y04468*
X02209*
X02199Y04478*
X02119Y04422D02*
X02109Y04432D01*
X02089*
X02079Y04422*
Y04412*
X02089Y04402*
X02109*
X02119Y04392*
Y04382*
X02109Y04372*
X02089*
X02079Y04382*
X02139Y04432D02*
Y04372D01*
X02169*
X02179Y04382*
Y04422*
X02169Y04432*
X02139*
X02229D02*
X02209D01*
X02199Y04422*
Y04382*
X02209Y04372*
X02229*
X02239Y04382*
Y04422*
X02229Y04432*
X02139Y04326D02*
X02129Y04336D01*
X02109*
X02099Y04326*
Y04316*
X02109Y04306*
X02129*
X02139Y04296*
Y04286*
X02129Y04276*
X02109*
X02099Y04286*
X02159Y04336D02*
Y04276D01*
X02189*
X02199Y04286*
Y04326*
X02189Y04336*
X02159*
X02219D02*
X02239D01*
X02229*
Y04276*
X02219*
X02239*
X02019Y0424D02*
Y0418D01*
X02059*
X02079Y0424D02*
Y0418D01*
X02109*
X02119Y0419*
Y0423*
X02109Y0424*
X02079*
X02139Y0418D02*
Y0422D01*
X02159Y0424*
X02179Y0422*
Y0418*
Y0421*
X02139*
X02239Y0423D02*
X02229Y0424D01*
X02209*
X02199Y0423*
Y0419*
X02209Y0418*
X02229*
X02239Y0419*
X02059Y04095D02*
Y04144D01*
Y04085D02*
Y04075D01*
X02079D02*
Y04135D01*
X02109*
X02119Y04125*
Y04105*
X02109Y04095*
X02079*
X02099D02*
X02119Y04075D01*
X02179Y04125D02*
X02169Y04135D01*
X02149*
X02139Y04125*
Y04115*
X02149Y04105*
X02169*
X02179Y04095*
Y04085*
X02169Y04075*
X02149*
X02139Y04085*
X02199Y04135D02*
X02239D01*
X02219*
Y04075*
X0137Y04736D02*
X0141D01*
X0143Y04706D02*
X01449D01*
X01439*
Y04766*
X0143Y04756*
X01519Y04706D02*
X01479D01*
X01519Y04746*
Y04756*
X01509Y04766*
X01489*
X01479Y04756*
X01539Y04766D02*
Y04726D01*
X01559Y04706*
X01579Y04726*
Y04766*
X0137Y0461D02*
Y0465D01*
X0139Y0467*
X0141Y0465*
Y0461*
Y0464*
X0137*
X01469Y0466D02*
X01459Y0467D01*
X01439*
X0143Y0466*
Y0462*
X01439Y0461*
X01459*
X01469Y0462*
Y0464*
X01449*
X01489Y0461D02*
Y0467D01*
X01529Y0461*
Y0467*
X01549D02*
Y0461D01*
X01579*
X01589Y0462*
Y0466*
X01579Y0467*
X01549*
X0137Y04545D02*
X0141D01*
X0139Y04565D02*
Y04525D01*
X0143Y04515D02*
X01449D01*
X01439*
Y04575*
X0143Y04565*
X01519Y04515D02*
X01479D01*
X01519Y04555*
Y04565*
X01509Y04575*
X01489*
X01479Y04565*
X01539Y04575D02*
Y04535D01*
X01559Y04515*
X01579Y04535*
Y04575*
X0217Y03855D02*
X0213D01*
Y03825*
X0215Y03835*
X0216*
X0217Y03825*
Y03805*
X0216Y03795*
X0214*
X0213Y03805*
X0219Y03855D02*
Y03815D01*
X02209Y03795*
X02229Y03815*
Y03855*
X02015Y03945D02*
Y03885D01*
X02045*
X02055Y03895*
Y03935*
X02045Y03945*
X02015*
X02114Y03935D02*
X02104Y03945D01*
X02084*
X02075Y03935*
Y03895*
X02084Y03885*
X02104*
X02114Y03895*
Y03915*
X02094*
X02134Y03885D02*
Y03945D01*
X02174Y03885*
Y03945*
X02194D02*
Y03885D01*
X02224*
X02234Y03895*
Y03935*
X02224Y03945*
X02194*
X0139Y04255D02*
Y04295D01*
X0141Y04315*
X0143Y04295*
Y04255*
Y04285*
X0139*
X01489Y04305D02*
X01479Y04315D01*
X01459*
X0145Y04305*
Y04265*
X01459Y04255*
X01479*
X01489Y04265*
Y04285*
X01469*
X01509Y04255D02*
Y04315D01*
X01549Y04255*
Y04315*
X01569D02*
Y04255D01*
X01599*
X01609Y04265*
Y04305*
X01599Y04315*
X01569*
X0139Y0417D02*
Y0421D01*
X0141Y0423*
X0143Y0421*
Y0417*
Y042*
X0139*
X01479Y0423D02*
X01459D01*
X0145Y0422*
Y0418*
X01459Y0417*
X01479*
X01489Y0418*
Y0422*
X01479Y0423*
X01509Y0421D02*
Y0418D01*
X01519Y0417*
X01549*
Y0421*
X01579Y0422D02*
Y0421D01*
X01569*
X01589*
X01579*
Y0418*
X01589Y0417*
X01682Y04557D02*
X01721Y04517D01*
X01682D02*
X01721Y04557D01*
X01682Y04537D02*
X01721D01*
X01702Y04517D02*
Y04557D01*
X0133Y04405D02*
X0132Y04395D01*
Y04375*
X0133Y04365*
X0137*
X0138Y04375*
Y04395*
X0137Y04405*
X0138Y04425D02*
Y04444D01*
Y04434*
X0132*
X0133Y04425*
X0141Y04405D02*
X014Y04395D01*
Y04375*
X0141Y04365*
X0145*
X0146Y04375*
Y04395*
X0145Y04405*
X0146Y04464D02*
Y04425D01*
X0142Y04464*
X0141*
X014Y04454*
Y04434*
X0141Y04425*
X01705Y0398D02*
X01695Y0397D01*
Y0395*
X01705Y0394*
X01745*
X01755Y0395*
Y0397*
X01745Y0398*
X01705Y04D02*
X01695Y04009D01*
Y04029*
X01705Y04039*
X01715*
X01725Y04029*
Y04019*
Y04029*
X01735Y04039*
X01745*
X01755Y04029*
Y04009*
X01745Y04*
X01615Y0398D02*
X01605Y0397D01*
Y0395*
X01615Y0394*
X01655*
X01665Y0395*
Y0397*
X01655Y0398*
X01665Y04029D02*
X01605D01*
X01635Y04*
Y04039*
X0175Y04745D02*
X0174Y04735D01*
Y04715*
X0175Y04705*
X0179*
X018Y04715*
Y04735*
X0179Y04745*
X0174Y04804D02*
Y04765D01*
X0177*
X0176Y04784*
Y04794*
X0177Y04804*
X0179*
X018Y04794*
Y04774*
X0179Y04765*
X0183Y04745D02*
X0182Y04735D01*
Y04715*
X0183Y04705*
X0187*
X0188Y04715*
Y04735*
X0187Y04745*
X0182Y04804D02*
X0183Y04784D01*
X0185Y04765*
X0187*
X0188Y04774*
Y04794*
X0187Y04804*
X0186*
X0185Y04794*
Y04765*
X02235Y0474D02*
X02175D01*
Y0477*
X02185Y0478*
X02205*
X02215Y0477*
Y0474*
X02235Y048D02*
Y04819D01*
Y04809*
X02175*
X02185Y048*
X0119Y0437D02*
Y0443D01*
X0122*
X0123Y0442*
Y044*
X0122Y0439*
X0119*
X01289Y0437D02*
X0125D01*
X01289Y0441*
Y0442*
X01279Y0443*
X01259*
X0125Y0442*
X0225Y0397D02*
Y0403D01*
X0228*
X0229Y0402*
Y04*
X0228Y0399*
X0225*
X0231Y0402D02*
X02319Y0403D01*
X02339*
X02349Y0402*
Y0401*
X02339Y04*
X02329*
X02339*
X02349Y0399*
Y0398*
X02339Y0397*
X02319*
X0231Y0398*
X01195Y0407D02*
Y0413D01*
X01225*
X01235Y0412*
Y041*
X01225Y0409*
X01195*
X01284Y0407D02*
Y0413D01*
X01255Y041*
X01294*
M02*