%FSTAX23Y23*%
%MOIN*%
%SFA1B1*%

%IPPOS*%
%ADD17C,0.006000*%
%ADD18C,0.007870*%
%ADD19C,0.002000*%
%ADD20C,0.010000*%
%LNpcb1-1*%
%LPD*%
G54D17*
X00615Y0075D02*
D01*
X00614Y00751*
X00614Y00752*
X00614Y00753*
X00614Y00755*
X00613Y00756*
X00613Y00757*
X00612Y00758*
X00612Y00759*
X00611Y0076*
X0061Y00761*
X00609Y00762*
X00609Y00763*
X00608Y00764*
X00607Y00765*
X00606Y00765*
X00604Y00766*
X00603Y00766*
X00602Y00767*
X00601Y00767*
X006Y00767*
X00598Y00768*
X00597Y00768*
X00596*
X00595Y00768*
X00593Y00767*
X00592Y00767*
X00591Y00767*
X0059Y00766*
X00589Y00766*
X00588Y00765*
X00586Y00765*
X00585Y00764*
X00584Y00763*
X00584Y00762*
X00583Y00761*
X00582Y0076*
X00581Y00759*
X00581Y00758*
X0058Y00757*
X0058Y00756*
X00579Y00755*
X00579Y00753*
X00579Y00752*
X00579Y00751*
X00579Y0075*
X00579Y00748*
X00579Y00747*
X00579Y00746*
X00579Y00745*
X0058Y00744*
X0058Y00742*
X00581Y00741*
X00581Y0074*
X00582Y00739*
X00583Y00738*
X00584Y00737*
X00584Y00736*
X00585Y00735*
X00586Y00735*
X00588Y00734*
X00589Y00734*
X0059Y00733*
X00591Y00733*
X00592Y00732*
X00593Y00732*
X00595Y00732*
X00596Y00732*
X00597*
X00598Y00732*
X006Y00732*
X00601Y00732*
X00602Y00733*
X00603Y00733*
X00604Y00734*
X00606Y00734*
X00607Y00735*
X00608Y00735*
X00609Y00736*
X00609Y00737*
X0061Y00738*
X00611Y00739*
X00612Y0074*
X00612Y00741*
X00613Y00742*
X00613Y00744*
X00614Y00745*
X00614Y00746*
X00614Y00747*
X00614Y00748*
X00615Y0075*
X00555Y00484D02*
Y00785D01*
Y00484D02*
X00734D01*
Y00785*
X00555D02*
X00734D01*
G54D18*
X00459Y00704D02*
Y00735D01*
X004Y00704D02*
Y00735D01*
X0067Y00872D02*
Y00903D01*
X00729Y00872D02*
Y00903D01*
X0062Y00269D02*
Y003D01*
X00679Y00269D02*
Y003D01*
X01185Y0035D02*
Y0105D01*
X01085D02*
X01185D01*
X01085Y0035D02*
Y0105D01*
Y0035D02*
X01185D01*
X00369Y00704D02*
Y00735D01*
X0031Y00704D02*
Y00735D01*
X00715Y00269D02*
Y003D01*
X00774Y00269D02*
Y003D01*
X00585Y00872D02*
Y00903D01*
X00644Y00872D02*
Y00903D01*
X01085Y0025D02*
X01185D01*
Y0005D02*
Y0025D01*
X01085Y0005D02*
X01185D01*
X01085D02*
Y0025D01*
X00085Y0065D02*
X00185D01*
Y0045D02*
Y0065D01*
X00085Y0045D02*
X00185D01*
X00085D02*
Y0065D01*
X00185Y0075D02*
Y0105D01*
X00085D02*
X00185D01*
X00085Y0075D02*
Y0105D01*
Y0075D02*
X00185D01*
G54D19*
X00564Y00493D02*
Y00776D01*
Y00493D02*
X00725D01*
Y00776*
X00564D02*
X00725D01*
G54D20*
X00205Y01036D02*
X00244D01*
X00264Y01006D02*
X00284D01*
X00274*
Y01066*
X00264Y01056*
X00354Y01006D02*
X00314D01*
X00354Y01046*
Y01056*
X00344Y01066*
X00324*
X00314Y01056*
X00374Y01066D02*
Y01026D01*
X00394Y01006*
X00414Y01026*
Y01066*
X00205Y0091D02*
Y0095D01*
X00224Y0097*
X00244Y0095*
Y0091*
Y0094*
X00205*
X00304Y0096D02*
X00294Y0097D01*
X00274*
X00264Y0096*
Y0092*
X00274Y0091*
X00294*
X00304Y0092*
Y0094*
X00284*
X00324Y0091D02*
Y0097D01*
X00364Y0091*
Y0097*
X00384D02*
Y0091D01*
X00414*
X00424Y0092*
Y0096*
X00414Y0097*
X00384*
X00205Y00844D02*
X00244D01*
X00224Y00864D02*
Y00825D01*
X00264Y00815D02*
X00284D01*
X00274*
Y00874*
X00264Y00864*
X00354Y00815D02*
X00314D01*
X00354Y00854*
Y00864*
X00344Y00874*
X00324*
X00314Y00864*
X00374Y00874D02*
Y00834D01*
X00394Y00815*
X00414Y00834*
Y00874*
X00734Y0096D02*
Y0102D01*
X00764*
X00774Y0101*
Y0099*
X00764Y0098*
X00734*
X00754D02*
X00774Y0096D01*
X00834Y0101D02*
X00824Y0102D01*
X00804*
X00794Y0101*
Y01*
X00804Y0099*
X00824*
X00834Y0098*
Y0097*
X00824Y0096*
X00804*
X00794Y0097*
X00854Y0102D02*
X00894D01*
X00874*
Y0096*
X00954Y0101D02*
X00944Y0102D01*
X00924*
X00914Y0101*
Y01*
X00924Y0099*
X00944*
X00954Y0098*
Y0097*
X00944Y0096*
X00924*
X00914Y0097*
X01014Y0102D02*
X00974D01*
Y0096*
X01014*
X00974Y0099D02*
X00994D01*
X01034Y0102D02*
Y0096D01*
X01074*
X00894Y00914D02*
X00884Y00924D01*
X00864*
X00854Y00914*
Y00904*
X00864Y00894*
X00884*
X00894Y00884*
Y00874*
X00884Y00864*
X00864*
X00854Y00874*
X00954Y00914D02*
X00944Y00924D01*
X00924*
X00914Y00914*
Y00874*
X00924Y00864*
X00944*
X00954Y00874*
X00974Y00924D02*
Y00864D01*
X01014*
X01034Y00924D02*
Y00864D01*
Y00884*
X01074Y00924*
X01044Y00894*
X01074Y00864*
X01014Y00818D02*
X01004Y00828D01*
X00984*
X00974Y00818*
Y00778*
X00984Y00768*
X01004*
X01014Y00778*
X01074Y00818D02*
X01064Y00828D01*
X01044*
X01034Y00818*
Y00808*
X01044Y00798*
X01064*
X01074Y00788*
Y00778*
X01064Y00768*
X01044*
X01034Y00778*
X00954Y00722D02*
X00944Y00732D01*
X00924*
X00914Y00722*
Y00712*
X00924Y00702*
X00944*
X00954Y00692*
Y00682*
X00944Y00672*
X00924*
X00914Y00682*
X00974Y00732D02*
Y00672D01*
X01004*
X01014Y00682*
Y00722*
X01004Y00732*
X00974*
X01064D02*
X01044D01*
X01034Y00722*
Y00682*
X01044Y00672*
X01064*
X01074Y00682*
Y00722*
X01064Y00732*
X00974Y00626D02*
X00964Y00636D01*
X00944*
X00934Y00626*
Y00616*
X00944Y00606*
X00964*
X00974Y00596*
Y00586*
X00964Y00576*
X00944*
X00934Y00586*
X00994Y00636D02*
Y00576D01*
X01024*
X01034Y00586*
Y00626*
X01024Y00636*
X00994*
X01054D02*
X01074D01*
X01064*
Y00576*
X01054*
X01074*
X00854Y0054D02*
Y0048D01*
X00894*
X00914Y0054D02*
Y0048D01*
X00944*
X00954Y0049*
Y0053*
X00944Y0054*
X00914*
X00974Y0048D02*
Y0052D01*
X00994Y0054*
X01014Y0052*
Y0048*
Y0051*
X00974*
X01074Y0053D02*
X01064Y0054D01*
X01044*
X01034Y0053*
Y0049*
X01044Y0048*
X01064*
X01074Y0049*
X00894Y00394D02*
Y00444D01*
Y00385D02*
Y00375D01*
X00914D02*
Y00434D01*
X00944*
X00954Y00424*
Y00404*
X00944Y00394*
X00914*
X00934D02*
X00954Y00375D01*
X01014Y00424D02*
X01004Y00434D01*
X00984*
X00974Y00424*
Y00414*
X00984Y00404*
X01004*
X01014Y00394*
Y00385*
X01004Y00375*
X00984*
X00974Y00385*
X01034Y00434D02*
X01074D01*
X01054*
Y00375*
X0026Y00129D02*
Y0007D01*
X00289*
X00299Y0008*
Y00119*
X00289Y00129*
X0026*
X00319Y0007D02*
X00339D01*
X00329*
Y00109*
X00319*
X00369Y0007D02*
X00389D01*
X00379*
Y00129*
X00369*
X00419Y00109D02*
Y0008D01*
X00429Y0007*
X00459*
Y00109*
X00479Y0007D02*
Y00129D01*
Y00089D02*
X00509Y00109D01*
X00479Y00089D02*
X00509Y0007D01*
X00549Y00109D02*
X00569D01*
X00579Y00099*
Y0007*
X00549*
X00539Y0008*
X00549Y00089*
X00579*
X00659Y00129D02*
Y0007D01*
Y00099*
X00699*
Y00129*
Y0007*
X00719D02*
Y0008D01*
X00729*
Y0007*
X00719*
X00085Y0034D02*
X00124D01*
Y0033*
X00085Y0029*
Y0028*
X00144Y0034D02*
X00184D01*
Y0033*
X00144Y0029*
Y0028*
X00204Y0033D02*
X00214Y0034D01*
X00234*
X00244Y0033*
Y0032*
X00234Y0031*
X00224*
X00234*
X00244Y003*
Y0029*
X00234Y0028*
X00214*
X00204Y0029*
X00264Y0028D02*
X00284D01*
X00274*
Y0034*
X00264Y0033*
X00085Y00185D02*
Y00244D01*
X00114*
X00124Y00234*
Y00214*
X00114Y00204*
X00085*
X00184Y00234D02*
X00174Y00244D01*
X00154*
X00144Y00234*
Y00195*
X00154Y00185*
X00174*
X00184Y00195*
X00204Y00244D02*
Y00185D01*
X00234*
X00244Y00195*
Y00204*
X00234Y00214*
X00204*
X00234*
X00244Y00224*
Y00234*
X00234Y00244*
X00204*
X0003Y0037D02*
Y00429D01*
X00059*
X00069Y00419*
Y00399*
X00059Y00389*
X0003*
X00119Y0037D02*
Y00429D01*
X00089Y00399*
X00129*
X01085Y0027D02*
Y00329D01*
X01114*
X01124Y00319*
Y00299*
X01114Y00289*
X01085*
X01144Y00319D02*
X01154Y00329D01*
X01174*
X01184Y00319*
Y00309*
X01174Y00299*
X01164*
X01174*
X01184Y00289*
Y0028*
X01174Y0027*
X01154*
X01144Y0028*
X00025Y0067D02*
Y00729D01*
X00054*
X00064Y00719*
Y00699*
X00054Y00689*
X00025*
X00124Y0067D02*
X00084D01*
X00124Y00709*
Y00719*
X00114Y00729*
X00094*
X00084Y00719*
X0107Y0104D02*
X0101D01*
Y01069*
X0102Y01079*
X0104*
X0105Y01069*
Y0104*
X0107Y01099D02*
Y01119D01*
Y01109*
X0101*
X0102Y01099*
X00665Y01044D02*
X00655Y01034D01*
Y01015*
X00665Y01005*
X00705*
X00715Y01015*
Y01034*
X00705Y01044*
X00655Y01104D02*
X00665Y01084D01*
X00685Y01064*
X00705*
X00715Y01074*
Y01094*
X00705Y01104*
X00695*
X00685Y01094*
Y01064*
X00585Y01044D02*
X00575Y01034D01*
Y01015*
X00585Y01005*
X00625*
X00635Y01015*
Y01034*
X00625Y01044*
X00575Y01104D02*
Y01064D01*
X00605*
X00595Y01084*
Y01094*
X00605Y01104*
X00625*
X00635Y01094*
Y01074*
X00625Y01064*
X0045Y00279D02*
X0044Y00269D01*
Y0025*
X0045Y0024*
X0049*
X005Y0025*
Y00269*
X0049Y00279*
X005Y00329D02*
X0044D01*
X0047Y00299*
Y00339*
X0054Y00279D02*
X0053Y00269D01*
Y0025*
X0054Y0024*
X0058*
X0059Y0025*
Y00269*
X0058Y00279*
X0054Y00299D02*
X0053Y00309D01*
Y00329*
X0054Y00339*
X0055*
X0056Y00329*
Y00319*
Y00329*
X0057Y00339*
X0058*
X0059Y00329*
Y00309*
X0058Y00299*
X00245Y00704D02*
X00235Y00694D01*
Y00675*
X00245Y00665*
X00285*
X00295Y00675*
Y00694*
X00285Y00704*
X00295Y00764D02*
Y00724D01*
X00255Y00764*
X00245*
X00235Y00754*
Y00734*
X00245Y00724*
X00165Y00704D02*
X00155Y00694D01*
Y00675*
X00165Y00665*
X00205*
X00215Y00675*
Y00694*
X00205Y00704*
X00215Y00724D02*
Y00744D01*
Y00734*
X00155*
X00165Y00724*
X00517Y00857D02*
X00556Y00818D01*
X00517D02*
X00556Y00857D01*
X00517Y00837D02*
X00556D01*
X00536Y00818D02*
Y00857D01*
X00225Y0047D02*
Y00509D01*
X00244Y00529*
X00264Y00509*
Y0047*
Y00499*
X00225*
X00314Y00529D02*
X00294D01*
X00284Y00519*
Y0048*
X00294Y0047*
X00314*
X00324Y0048*
Y00519*
X00314Y00529*
X00344Y00509D02*
Y0048D01*
X00354Y0047*
X00384*
Y00509*
X00414Y00519D02*
Y00509D01*
X00404*
X00424*
X00414*
Y0048*
X00424Y0047*
X00225Y00555D02*
Y00594D01*
X00244Y00614*
X00264Y00594*
Y00555*
Y00584*
X00225*
X00324Y00604D02*
X00314Y00614D01*
X00294*
X00284Y00604*
Y00565*
X00294Y00555*
X00314*
X00324Y00565*
Y00584*
X00304*
X00344Y00555D02*
Y00614D01*
X00384Y00555*
Y00614*
X00404D02*
Y00555D01*
X00434*
X00444Y00565*
Y00604*
X00434Y00614*
X00404*
X0085Y00244D02*
Y00185D01*
X00879*
X00889Y00195*
Y00234*
X00879Y00244*
X0085*
X00949Y00234D02*
X00939Y00244D01*
X00919*
X00909Y00234*
Y00195*
X00919Y00185*
X00939*
X00949Y00195*
Y00214*
X00929*
X00969Y00185D02*
Y00244D01*
X01009Y00185*
Y00244*
X01029D02*
Y00185D01*
X01059*
X01069Y00195*
Y00234*
X01059Y00244*
X01029*
X01004Y00154D02*
X00965D01*
Y00124*
X00984Y00134*
X00994*
X01004Y00124*
Y00105*
X00994Y00095*
X00975*
X00965Y00105*
X01024Y00154D02*
Y00114D01*
X01044Y00095*
X01064Y00114*
Y00154*
M02*