%FSTAX23Y23*%
%MOIN*%
%SFA1B1*%

%IPPOS*%
%ADD10R,0.066930X0.043310*%
%ADD11R,0.039000X0.012000*%
%ADD12C,0.012000*%
%ADD13C,0.118110*%
%ADD14C,0.059060*%
%ADD15R,0.059060X0.059060*%
%ADD16C,0.050000*%
%LNpcb1-1*%
%LPD*%
G36*
X01258Y00016D02*
X0048D01*
Y00482*
X00481Y00483*
X00496Y00497*
X005Y00495*
Y00478*
X00525*
Y00494*
X0053*
Y00499*
X00559*
Y00505*
X00565*
X00725Y00757*
X0073Y00756*
Y00708*
Y00682*
Y00657*
Y00631*
Y00606*
Y0058*
Y00555*
Y00529*
Y00503*
Y00478*
X00743*
Y00456*
X00742Y00455*
X00735Y00449*
X00729Y00442*
X00725Y00434*
X00724Y00425*
X00725Y00415*
X00729Y00407*
X00735Y004*
X00742Y00394*
X00743Y00393*
Y00369*
X00701*
Y00354*
X00693*
Y00369*
X00606*
Y00306*
X00693*
Y00321*
X00701*
Y00306*
X00788*
Y00369*
X00776*
Y00393*
X00777Y00394*
X00784Y004*
X0079Y00407*
X00794Y00415*
X00795Y00425*
X00794Y00434*
X0079Y00442*
X00784Y00449*
X00777Y00455*
X00776Y00456*
Y00478*
X00789*
Y00503*
Y00529*
Y00554*
X00967*
X01101Y0042*
X011Y00419*
X01096Y0041*
X01095Y004*
X01096Y00389*
X011Y0038*
X01106Y00371*
X01115Y00365*
X01124Y00361*
X01135Y0036*
X01145Y00361*
X01154Y00365*
X01163Y00371*
X01169Y0038*
X01173Y00389*
X01174Y004*
X01173Y0041*
X01169Y00419*
X01163Y00428*
X01154Y00434*
X01145Y00438*
X01135Y00439*
X01128Y00439*
X00992Y00575*
X00994Y0058*
X01031*
X01097Y00513*
X01096Y0051*
X01095Y005*
X01096Y00489*
X011Y0048*
X01106Y00471*
X01115Y00465*
X01124Y00461*
X01135Y0046*
X01145Y00461*
X01154Y00465*
X01163Y00471*
X01169Y0048*
X01173Y00489*
X01174Y005*
X01173Y0051*
X01169Y00519*
X01163Y00528*
X01154Y00534*
X01145Y00538*
X01135Y00539*
X01124Y00538*
X01121Y00537*
X01056Y00601*
X01058Y00605*
X01092*
X01095Y00602*
X01095Y006*
X01096Y00589*
X011Y0058*
X01106Y00571*
X01115Y00565*
X01124Y00561*
X01135Y0056*
X01145Y00561*
X01154Y00565*
X01163Y00571*
X01169Y0058*
X01173Y00589*
X01174Y006*
X01173Y0061*
X01169Y00619*
X01163Y00628*
X01154Y00634*
X01145Y00638*
X01135Y00639*
X01124Y00638*
X0112Y00636*
X01119Y00637*
X01112Y00638*
X01033*
X01031Y00643*
X01069Y00681*
X011*
X011Y0068*
X01106Y00671*
X01115Y00665*
X01124Y00661*
X01135Y0066*
X01145Y00661*
X01154Y00665*
X01163Y00671*
X01169Y0068*
X01173Y00689*
X01174Y007*
X01173Y0071*
X01169Y00719*
X01163Y00728*
X01154Y00734*
X01145Y00738*
X01135Y00739*
X01124Y00738*
X01115Y00734*
X01106Y00728*
X011Y00719*
X01097Y00713*
X01062*
X01056Y00712*
X0105Y00709*
X01009Y00667*
X01009Y00667*
X01007Y00672*
X01106Y00771*
X01106Y00771*
X01115Y00765*
X01124Y00761*
X01135Y0076*
X01145Y00761*
X01154Y00765*
X01163Y00771*
X01169Y0078*
X01173Y00789*
X01174Y008*
X01173Y0081*
X01169Y00819*
X01163Y00828*
X01154Y00834*
X01145Y00838*
X01135Y00839*
X01124Y00838*
X01115Y00834*
X0111Y00831*
X01106Y00833*
X01106Y00835*
Y00863*
X01111Y00868*
X01115Y00865*
X01124Y00861*
X01135Y0086*
X01145Y00861*
X01154Y00865*
X01163Y00871*
X01169Y0088*
X01173Y00889*
X01174Y009*
X01173Y0091*
X01169Y00919*
X01163Y00928*
X01154Y00934*
X01145Y00938*
X01135Y00939*
X01124Y00938*
X01115Y00934*
X01106Y00928*
X011Y00919*
X01096Y0091*
X01095Y009*
X01095Y00898*
X01085Y00889*
X01081Y0089*
Y00923*
X01118Y0096*
X01174*
Y01039*
X01095*
Y00983*
X01053Y00941*
X01049Y00936*
X01048Y0093*
Y00856*
X00932Y0074*
X00887*
X00885Y00745*
X0089Y00752*
X00894Y0076*
X00895Y0077*
X00894Y00779*
X0089Y00787*
X00884Y00794*
X00877Y008*
X00869Y00804*
X0086Y00805*
X0085Y00804*
X00842Y008*
X00835Y00794*
X00829Y00787*
X00825Y00779*
X00825Y00773*
X00818Y00766*
X00802*
X008Y00771*
X0084Y00815*
Y01118*
X01258*
Y00016*
G37*
G36*
X00096Y00889D02*
X001Y0088D01*
X00106Y00871*
X00115Y00865*
X00124Y00861*
X00135Y0086*
X00145Y00861*
X00154Y00865*
X00163Y00871*
X00169Y0088*
X00173Y00889*
X00174Y00889*
X0031*
X00391Y00809*
X00389Y00804*
X00383*
X00381*
X00345*
Y00773*
Y00741*
X00381*
X00386*
X00388*
X00425*
Y00773*
X0043*
Y00778*
X00473*
Y00789*
X005*
Y0078*
X0053*
X00559*
Y00789*
X00567*
X00569Y0079*
X00571Y0079*
X00571Y0079*
X00571Y0079*
X00573Y00791*
X00574Y00792*
X00577Y00795*
X00727*
X00727Y00793*
X00728Y00791*
X00728Y00791*
X00728Y00791*
X00729Y00789*
X0073Y00788*
Y00783*
X00718Y00764*
X00717Y00764*
X00717Y00763*
X00716Y00763*
X00694Y00727*
X0066Y00675*
X00622Y00616*
X00578Y00545*
X00564Y00523*
X00559Y00524*
Y00555*
Y0058*
Y00606*
Y00631*
Y00657*
Y00682*
Y00708*
Y00734*
Y00759*
Y0077*
X0053*
X005*
Y00759*
Y00734*
Y00708*
Y00682*
Y00638*
X00481*
X00473Y00646*
Y00698*
X00386*
X00383*
X00296*
Y00646*
X00291Y00641*
X00284Y00644*
X00275Y00645*
X00265Y00644*
X00257Y0064*
X0025Y00634*
X00244Y00627*
X0024Y00619*
X00239Y0061*
X0024Y006*
X00244Y00592*
X0025Y00585*
X00257Y00579*
X00265Y00575*
X00275Y00574*
X00284Y00575*
X00292Y00579*
X00299Y00585*
X00305Y00592*
X00309Y006*
X0031Y0061*
X00309Y00613*
X00331Y00635*
X00383*
X00386*
X00438*
X00463Y0061*
X00468Y00607*
X00471Y00606*
X00473Y00601*
X00468Y00596*
X00464Y00591*
X00463Y00585*
Y00535*
X00464Y00528*
X00468Y00523*
X00472Y00519*
X00463Y00511*
X00174*
Y00539*
X00095*
Y0046*
X00174*
Y00478*
X00469*
Y00016*
X00016*
Y00889*
X00095*
X00096Y00889*
X00096Y00889*
G37*
G36*
X00829Y00818D02*
X00794Y00779D01*
X00789Y00781*
Y00791*
X00764*
Y00775*
X00754*
Y00791*
X00741*
X00737Y00795*
X00737Y008*
X00741Y00803*
X00743*
Y0083*
X007*
Y00835*
X00695*
Y00866*
X0062*
Y00835*
X00615*
Y0083*
X00571*
Y00805*
Y00803*
X00567Y008*
X00473*
Y00804*
X0041*
X00315Y009*
X00174*
X00173Y0091*
X00169Y00919*
X00163Y00928*
X00154Y00934*
X00145Y00938*
X00135Y00939*
X00124Y00938*
X00115Y00934*
X00106Y00928*
X001Y00919*
X00096Y0091*
X00095Y009*
X00016*
Y01118*
X00829*
Y00818*
G37*
%LNpcb1-2*%
%LPC*%
G36*
X00935Y01069D02*
X00921Y01068D01*
X00908Y01064*
X00896Y01057*
X00885Y01049*
X00877Y01038*
X0087Y01026*
X00866Y01013*
X00865Y01*
X00866Y00986*
X0087Y00973*
X00877Y00961*
X00885Y0095*
X00896Y00942*
X00908Y00935*
X00921Y00931*
X00935Y0093*
X00948Y00931*
X00961Y00935*
X00973Y00942*
X00984Y0095*
X00992Y00961*
X00999Y00973*
X01003Y00986*
X01004Y01*
X01003Y01013*
X00999Y01026*
X00992Y01038*
X00984Y01049*
X00973Y01057*
X00961Y01064*
X00948Y01068*
X00935Y01069*
G37*
G36*
X00559Y00489D02*
X00535D01*
Y00478*
X00559*
Y00489*
G37*
G36*
X00788Y00263D02*
X0075D01*
Y00236*
X00788*
Y00263*
G37*
G36*
X0074D02*
X00701D01*
Y00236*
X0074*
Y00263*
G37*
G36*
X00693D02*
X00655D01*
Y00236*
X00693*
Y00263*
G37*
G36*
X00645D02*
X00606D01*
Y00236*
X00645*
Y00263*
G37*
G36*
X00788Y00226D02*
X0075D01*
Y002*
X00788*
Y00226*
G37*
G36*
X0074D02*
X00701D01*
Y002*
X0074*
Y00226*
G37*
G36*
X00693D02*
X00655D01*
Y002*
X00693*
Y00226*
G37*
G36*
X00645D02*
X00606D01*
Y002*
X00645*
Y00226*
G37*
G36*
X01135Y00239D02*
X01124Y00238D01*
X01115Y00234*
X01106Y00228*
X011Y00219*
X01096Y0021*
X01095Y002*
X01096Y00189*
X011Y0018*
X01106Y00171*
X01115Y00165*
X01124Y00161*
X01135Y0016*
X01145Y00161*
X01154Y00165*
X01163Y00171*
X01169Y0018*
X01173Y00189*
X01174Y002*
X01173Y0021*
X01169Y00219*
X01163Y00228*
X01154Y00234*
X01145Y00238*
X01135Y00239*
G37*
G36*
X01174Y00139D02*
X0114D01*
Y00105*
X01174*
Y00139*
G37*
G36*
X0113D02*
X01095D01*
Y00105*
X0113*
Y00139*
G37*
G36*
X01174Y00095D02*
X0114D01*
Y0006*
X01174*
Y00095*
G37*
G36*
X0113D02*
X01095D01*
Y0006*
X0113*
Y00095*
G37*
G36*
X00835Y00169D02*
X00821Y00168D01*
X00808Y00164*
X00796Y00157*
X00785Y00149*
X00777Y00138*
X0077Y00126*
X00766Y00113*
X00765Y001*
X00766Y00086*
X0077Y00073*
X00777Y00061*
X00785Y0005*
X00796Y00042*
X00808Y00035*
X00821Y00031*
X00835Y0003*
X00848Y00031*
X00861Y00035*
X00873Y00042*
X00884Y0005*
X00892Y00061*
X00899Y00073*
X00903Y00086*
X00904Y001*
X00903Y00113*
X00899Y00126*
X00892Y00138*
X00884Y00149*
X00873Y00157*
X00861Y00164*
X00848Y00168*
X00835Y00169*
G37*
G36*
X00174Y00839D02*
X0014D01*
Y00805*
X00174*
Y00839*
G37*
G36*
X0013D02*
X00095D01*
Y00805*
X0013*
Y00839*
G37*
G36*
X00335Y00804D02*
X00296D01*
Y00778*
X00335*
Y00804*
G37*
G36*
X00174Y00795D02*
X0014D01*
Y0076*
X00174*
Y00795*
G37*
G36*
X0013D02*
X00095D01*
Y0076*
X0013*
Y00795*
G37*
G36*
X00473Y00768D02*
X00435D01*
Y00741*
X00473*
Y00768*
G37*
G36*
X00335D02*
X00296D01*
Y00741*
X00335*
Y00768*
G37*
G36*
X00135Y00639D02*
X00124Y00638D01*
X00115Y00634*
X00106Y00628*
X001Y00619*
X00096Y0061*
X00095Y006*
X00096Y00589*
X001Y0058*
X00106Y00571*
X00115Y00565*
X00124Y00561*
X00135Y0056*
X00145Y00561*
X00154Y00565*
X00163Y00571*
X00169Y0058*
X00173Y00589*
X00174Y006*
X00173Y0061*
X00169Y00619*
X00163Y00628*
X00154Y00634*
X00145Y00638*
X00135Y00639*
G37*
G36*
Y00169D02*
X00121Y00168D01*
X00108Y00164*
X00096Y00157*
X00085Y00149*
X00077Y00138*
X0007Y00126*
X00066Y00113*
X00065Y001*
X00066Y00086*
X0007Y00073*
X00077Y00061*
X00085Y0005*
X00096Y00042*
X00108Y00035*
X00121Y00031*
X00135Y0003*
X00148Y00031*
X00161Y00035*
X00173Y00042*
X00184Y0005*
X00192Y00061*
X00199Y00073*
X00203Y00086*
X00204Y001*
X00203Y00113*
X00199Y00126*
X00192Y00138*
X00184Y00149*
X00173Y00157*
X00161Y00164*
X00148Y00168*
X00135Y00169*
G37*
G36*
X0014Y01039D02*
Y01005D01*
X00174*
X00173Y0101*
X00169Y01019*
X00163Y01028*
X00154Y01034*
X00145Y01038*
X0014Y01039*
G37*
G36*
X0013D02*
X00124Y01038D01*
X00115Y01034*
X00106Y01028*
X001Y01019*
X00096Y0101*
X00095Y01005*
X0013*
Y01039*
G37*
G36*
X00174Y00995D02*
X0014D01*
Y0096*
X00145Y00961*
X00154Y00965*
X00163Y00971*
X00169Y0098*
X00173Y00989*
X00174Y00995*
G37*
G36*
X0013D02*
X00095D01*
X00096Y00989*
X001Y0098*
X00106Y00971*
X00115Y00965*
X00124Y00961*
X0013Y0096*
Y00995*
G37*
G36*
X0051Y01005D02*
X005Y01004D01*
X00492Y01*
X00485Y00994*
X00479Y00987*
X00475Y00979*
X00474Y0097*
X00475Y0096*
X00479Y00952*
X00485Y00945*
X00492Y00939*
X005Y00935*
X0051Y00934*
X00519Y00935*
X00527Y00939*
X00534Y00945*
X0054Y00952*
X00541Y00953*
X00571*
Y00909*
X00743*
Y00972*
X00606*
X00597Y00981*
X00592Y00985*
X00586Y00986*
X00541*
X0054Y00987*
X00534Y00994*
X00527Y01*
X00519Y01004*
X0051Y01005*
G37*
G36*
X00743Y00866D02*
X00705D01*
Y0084*
X00743*
Y00866*
G37*
G36*
X0061D02*
X00571D01*
Y0084*
X0061*
Y00866*
G37*
%LNpcb1-3*%
%LPD*%
G54D10*
X0043Y00773D03*
Y00666D03*
X007Y00835D03*
Y00941D03*
X0065Y00231D03*
Y00338D03*
X0034Y00773D03*
Y00666D03*
X00745Y00231D03*
Y00338D03*
X00615Y00835D03*
Y00941D03*
G54D11*
X0053Y00775D03*
Y0075D03*
Y00724D03*
Y00698D03*
Y00673D03*
Y00647D03*
Y00622D03*
Y00596D03*
Y00571D03*
Y00545D03*
Y00519D03*
Y00494D03*
X00759D03*
Y00519D03*
Y00545D03*
Y00571D03*
Y00596D03*
Y00622D03*
Y00647D03*
Y00673D03*
Y00698D03*
Y00724D03*
Y0075D03*
Y00775D03*
G54D12*
X00845Y0077D02*
X0086D01*
X00825Y0075D02*
X00845Y0077D01*
X0051Y0097D02*
X00586D01*
X0076Y00353D02*
Y00425D01*
X00759Y00425D02*
Y00494D01*
X00745Y00338D02*
X0076Y00353D01*
X0065Y00338D02*
X00745D01*
X0043Y00773D02*
X00454D01*
X0014Y00494D02*
X0047D01*
X00759Y00647D02*
X01012D01*
X01118Y00516D02*
X01135D01*
X01038Y00596D02*
X01118Y00516D01*
X00759Y00596D02*
X01038D01*
X01135Y004D02*
Y0041D01*
X00973Y00571D02*
X01135Y0041D01*
X00759Y00571D02*
X00973D01*
X00759Y00622D02*
X01112D01*
X01062Y00697D02*
X01132D01*
X01012Y00647D02*
X01062Y00697D01*
X01111Y008D02*
X01135D01*
X00985Y00673D02*
X01111Y008D01*
X00759Y00673D02*
X00985D01*
X00953Y00698D02*
X0109Y00835D01*
X00759Y00698D02*
X00953D01*
X01065Y0085D02*
Y0093D01*
X00939Y00724D02*
X01065Y0085D01*
X0109Y00835D02*
Y0087D01*
X00759Y00724D02*
X00939D01*
X01065Y0093D02*
X01135Y01D01*
X0109Y0087D02*
X0112Y009D01*
X00759Y0075D02*
X00825D01*
X00586Y0097D02*
X00615Y00941D01*
X007*
X00615Y00835D02*
X007D01*
X00283Y0061D02*
X0034Y00666D01*
X00275Y0061D02*
X00283D01*
X0043Y00666D02*
X00474Y00622D01*
X0053*
X0034Y00666D02*
X0043D01*
X0047Y00494D02*
X00495Y00519D01*
X00491Y00596D02*
X0053D01*
X0048Y00585D02*
X00491Y00596D01*
X0048Y00535D02*
Y00585D01*
Y00535D02*
X00495Y00519D01*
X0053*
Y00725D02*
Y0075D01*
X00529Y00725D02*
X0053Y00724D01*
X00759Y00494D02*
Y00519D01*
G54D13*
X00835Y001D03*
X00935Y01D03*
X00135Y001D03*
G54D14*
X01135Y004D03*
Y005D03*
Y006D03*
Y007D03*
Y009D03*
Y008D03*
Y002D03*
X00135Y006D03*
Y009D03*
Y01D03*
G54D15*
X01135Y01D03*
Y001D03*
X00135Y005D03*
Y008D03*
G54D16*
X0086Y0077D03*
X0051Y0097D03*
X0076Y00425D03*
X00275Y0061D03*
M02*