G04 Layer_Color=32768*
%FSLAX25Y25*%
%MOIN*%
G70*
G01*
G75*
%ADD29C,0.00394*%
D29*
X57760Y96689D02*
X65240D01*
X57760Y80941D02*
X65240D01*
Y96689D01*
X57760Y80941D02*
Y96689D01*
X61500Y86847D02*
Y90784D01*
X59531Y88815D02*
X63468D01*
X69689Y29260D02*
Y36740D01*
X53941Y29260D02*
Y36740D01*
Y29260D02*
X69689D01*
X53941Y36740D02*
X69689D01*
X59847Y33000D02*
X63784D01*
X61815Y31032D02*
Y34969D01*
X30260Y64126D02*
X37740D01*
X30260Y79874D02*
X37740D01*
X30260Y64126D02*
Y79874D01*
X37740Y64126D02*
Y79874D01*
X34000Y70031D02*
Y73968D01*
X32032Y72000D02*
X35969D01*
X69689Y38760D02*
Y46240D01*
X53941Y38760D02*
Y46240D01*
Y38760D02*
X69689D01*
X53941Y46240D02*
X69689D01*
X59847Y42500D02*
X63784D01*
X61815Y40532D02*
Y44469D01*
X66260Y96689D02*
X73740D01*
X66260Y80941D02*
X73740D01*
Y96689D01*
X66260Y80941D02*
Y96689D01*
X70000Y86847D02*
Y90784D01*
X68032Y88815D02*
X71969D01*
X39260Y64126D02*
X46740D01*
X39260Y79874D02*
X46740D01*
X39260Y64126D02*
Y79874D01*
X46740Y64126D02*
Y79874D01*
X43000Y70031D02*
Y73968D01*
X41032Y72000D02*
X44969D01*
M02*
