G04 Layer_Physical_Order=1*
G04 Layer_Color=255*
%FSLAX25Y25*%
%MOIN*%
G70*
G01*
G75*
%ADD10R,0.03900X0.01200*%
%ADD11R,0.06693X0.04331*%
%ADD12R,0.04331X0.06693*%
%ADD13C,0.01200*%
%ADD14C,0.05906*%
%ADD15R,0.05906X0.05906*%
%ADD16C,0.11811*%
%ADD17C,0.05000*%
G36*
X125869Y1631D02*
X50000D01*
Y47351D01*
X50063Y47825D01*
X52513D01*
Y49425D01*
X53013D01*
Y49925D01*
X55963D01*
Y50500D01*
X56500D01*
X72500Y76000D01*
X73037D01*
Y73416D01*
Y70857D01*
Y68298D01*
Y65739D01*
Y63180D01*
Y60620D01*
Y58061D01*
Y55502D01*
Y52943D01*
Y50384D01*
Y47825D01*
X73811D01*
X74018Y47325D01*
X73847Y47153D01*
X73530Y46679D01*
X73235Y46557D01*
X72504Y45996D01*
X71943Y45265D01*
X71590Y44414D01*
X71553Y44131D01*
X70295D01*
Y46846D01*
X63965D01*
Y38154D01*
X65499D01*
Y37346D01*
X63965D01*
Y28654D01*
X70295D01*
Y37346D01*
X68761D01*
Y38154D01*
X70295D01*
Y40869D01*
X72680D01*
X73235Y40443D01*
X74086Y40090D01*
X75000Y39970D01*
X75914Y40090D01*
X76765Y40443D01*
X77496Y41004D01*
X78057Y41735D01*
X78410Y42586D01*
X78530Y43500D01*
X78410Y44414D01*
X78057Y45265D01*
X77496Y45996D01*
X77333Y46121D01*
X77494Y46363D01*
X77618Y46987D01*
Y47825D01*
X78937D01*
Y50384D01*
Y52943D01*
Y55471D01*
X96722D01*
X110113Y42080D01*
X110047Y41993D01*
X109649Y41032D01*
X109513Y40000D01*
X109649Y38968D01*
X110047Y38007D01*
X110681Y37181D01*
X111507Y36547D01*
X112468Y36149D01*
X113500Y36013D01*
X114532Y36149D01*
X115493Y36547D01*
X116319Y37181D01*
X116953Y38007D01*
X117351Y38968D01*
X117487Y40000D01*
X117351Y41032D01*
X116953Y41993D01*
X116319Y42819D01*
X115493Y43453D01*
X114532Y43851D01*
X113500Y43987D01*
X112899Y43908D01*
X99239Y57568D01*
X99431Y58030D01*
X103163D01*
X109799Y51394D01*
X109649Y51032D01*
X109513Y50000D01*
X109649Y48968D01*
X110047Y48007D01*
X110681Y47181D01*
X111507Y46547D01*
X112468Y46149D01*
X113500Y46013D01*
X114532Y46149D01*
X115493Y46547D01*
X116319Y47181D01*
X116953Y48007D01*
X117351Y48968D01*
X117487Y50000D01*
X117351Y51032D01*
X116953Y51993D01*
X116319Y52819D01*
X115493Y53453D01*
X114532Y53851D01*
X113500Y53987D01*
X112468Y53851D01*
X112106Y53701D01*
X105680Y60127D01*
X105872Y60589D01*
X109212D01*
X109541Y60213D01*
X109513Y60000D01*
X109649Y58968D01*
X110047Y58007D01*
X110681Y57181D01*
X111507Y56547D01*
X112468Y56149D01*
X113500Y56013D01*
X114532Y56149D01*
X115493Y56547D01*
X116319Y57181D01*
X116953Y58007D01*
X117351Y58968D01*
X117487Y60000D01*
X117351Y61032D01*
X116953Y61993D01*
X116319Y62819D01*
X115493Y63453D01*
X114532Y63851D01*
X113500Y63987D01*
X112468Y63851D01*
X112006Y63660D01*
X111904Y63727D01*
X111280Y63851D01*
X103312D01*
X103120Y64313D01*
X106926Y68119D01*
X110001D01*
X110047Y68007D01*
X110681Y67181D01*
X111507Y66547D01*
X112468Y66149D01*
X113500Y66013D01*
X114532Y66149D01*
X115493Y66547D01*
X116319Y67181D01*
X116953Y68007D01*
X117351Y68968D01*
X117487Y70000D01*
X117351Y71032D01*
X116953Y71993D01*
X116319Y72819D01*
X115493Y73453D01*
X114532Y73851D01*
X113500Y73987D01*
X112468Y73851D01*
X111507Y73453D01*
X110681Y72819D01*
X110047Y71993D01*
X109794Y71381D01*
X106250D01*
X105626Y71257D01*
X105096Y70903D01*
X100936Y66743D01*
X100922Y66746D01*
X100757Y67289D01*
X110651Y77183D01*
X110681Y77181D01*
X111507Y76547D01*
X112468Y76149D01*
X113500Y76013D01*
X114532Y76149D01*
X115493Y76547D01*
X116319Y77181D01*
X116953Y78007D01*
X117351Y78968D01*
X117487Y80000D01*
X117351Y81032D01*
X116953Y81993D01*
X116319Y82819D01*
X115493Y83453D01*
X114532Y83851D01*
X113500Y83987D01*
X112468Y83851D01*
X111507Y83453D01*
X111064Y83113D01*
X110610Y83395D01*
X110631Y83500D01*
Y86324D01*
X111137Y86830D01*
X111507Y86547D01*
X112468Y86149D01*
X113500Y86013D01*
X114532Y86149D01*
X115493Y86547D01*
X116319Y87181D01*
X116953Y88007D01*
X117351Y88968D01*
X117487Y90000D01*
X117351Y91032D01*
X116953Y91993D01*
X116319Y92819D01*
X115493Y93453D01*
X114532Y93851D01*
X113500Y93987D01*
X112468Y93851D01*
X111507Y93453D01*
X110681Y92819D01*
X110047Y91993D01*
X109649Y91032D01*
X109513Y90000D01*
X109534Y89841D01*
X108593Y88900D01*
X108131Y89092D01*
Y92324D01*
X111854Y96047D01*
X117453D01*
Y103953D01*
X109547D01*
Y98354D01*
X105347Y94153D01*
X104993Y93624D01*
X104869Y93000D01*
Y85676D01*
X93281Y74088D01*
X88701D01*
X88561Y74588D01*
X89057Y75235D01*
X89410Y76086D01*
X89530Y77000D01*
X89410Y77914D01*
X89057Y78765D01*
X88496Y79496D01*
X87765Y80057D01*
X86914Y80410D01*
X86000Y80530D01*
X85086Y80410D01*
X84235Y80057D01*
X83504Y79496D01*
X82943Y78765D01*
X82590Y77914D01*
X82512Y77319D01*
X81840Y76647D01*
X81000D01*
X81000Y81500D01*
Y111869D01*
X125869D01*
Y1631D01*
D02*
G37*
G36*
X79980Y81500D02*
X79980Y76647D01*
X78937D01*
Y77075D01*
X75987D01*
X73037D01*
Y77020D01*
X72500D01*
X72387Y76997D01*
X72272Y76994D01*
X72194Y76959D01*
X72110Y76942D01*
X72014Y76878D01*
X71909Y76831D01*
X71851Y76769D01*
X71779Y76721D01*
X71715Y76625D01*
X71636Y76542D01*
X71296Y76000D01*
X65500D01*
X62000Y79500D01*
X57000D01*
X46500Y90000D01*
X17987Y90000D01*
X17487Y90000D01*
X17351Y91032D01*
X16953Y91993D01*
X16319Y92819D01*
X15493Y93453D01*
X14532Y93851D01*
X13500Y93987D01*
X12468Y93851D01*
X11507Y93453D01*
X10681Y92819D01*
X10047Y91993D01*
X9649Y91032D01*
X9513Y90000D01*
X9013Y90000D01*
X1631D01*
Y111869D01*
X79980D01*
Y81500D01*
D02*
G37*
G36*
X9649Y88968D02*
X10047Y88007D01*
X10681Y87181D01*
X11507Y86547D01*
X12468Y86149D01*
X13500Y86013D01*
X14532Y86149D01*
X15493Y86547D01*
X16319Y87181D01*
X16953Y88007D01*
X17351Y88968D01*
X17487Y88980D01*
X17987Y88980D01*
X46078Y88980D01*
X55421Y79637D01*
X55230Y79175D01*
X53513D01*
Y78075D01*
X55963D01*
Y78421D01*
X56463Y78656D01*
X56610Y78558D01*
X57000Y78480D01*
X61578D01*
X64779Y75279D01*
X65110Y75058D01*
X65500Y74980D01*
X70140D01*
X70382Y74543D01*
X56444Y52328D01*
X55963Y52467D01*
Y55502D01*
Y58061D01*
Y60620D01*
Y63180D01*
Y65739D01*
Y68298D01*
Y70857D01*
Y73416D01*
Y75975D01*
Y77075D01*
X53013D01*
X50063D01*
Y75975D01*
Y73416D01*
Y70857D01*
Y68298D01*
Y63851D01*
X48141D01*
X47346Y64646D01*
Y69850D01*
X38654D01*
Y69850D01*
X38346D01*
Y69850D01*
X29654D01*
Y64646D01*
X29124Y64116D01*
X28414Y64410D01*
X27500Y64530D01*
X26586Y64410D01*
X25735Y64057D01*
X25004Y63496D01*
X24443Y62765D01*
X24090Y61914D01*
X23970Y61000D01*
X24090Y60086D01*
X24443Y59235D01*
X25004Y58504D01*
X25735Y57943D01*
X26586Y57590D01*
X27500Y57470D01*
X28414Y57590D01*
X29265Y57943D01*
X29996Y58504D01*
X30557Y59235D01*
X30910Y60086D01*
X31030Y61000D01*
X30983Y61361D01*
X33142Y63520D01*
X38346D01*
Y63520D01*
X38654D01*
Y63520D01*
X43858D01*
X46312Y61067D01*
X46841Y60713D01*
X47139Y60653D01*
X47304Y60111D01*
X46847Y59654D01*
X46493Y59124D01*
X46369Y58500D01*
Y53500D01*
X46493Y52876D01*
X46847Y52346D01*
X47209Y51984D01*
X46340Y51115D01*
X17453D01*
Y53953D01*
X9547D01*
Y46047D01*
X17453D01*
Y47853D01*
X47016D01*
X47640Y47977D01*
X48169Y48331D01*
X48538Y48699D01*
X49000Y48508D01*
Y47566D01*
X48989Y47486D01*
X48994Y47418D01*
X48980Y47351D01*
Y1631D01*
X1631D01*
Y88980D01*
X9013D01*
X9513Y88980D01*
X9606Y88999D01*
X9649Y88968D01*
D02*
G37*
%LPC*%
G36*
X90000Y106939D02*
X88646Y106806D01*
X87345Y106411D01*
X86145Y105770D01*
X85093Y104907D01*
X84231Y103855D01*
X83589Y102655D01*
X83194Y101354D01*
X83061Y100000D01*
X83194Y98646D01*
X83589Y97345D01*
X84231Y96145D01*
X85093Y95093D01*
X86145Y94231D01*
X87345Y93589D01*
X88646Y93194D01*
X90000Y93061D01*
X91354Y93194D01*
X92655Y93589D01*
X93855Y94231D01*
X94907Y95093D01*
X95770Y96145D01*
X96411Y97345D01*
X96806Y98646D01*
X96939Y100000D01*
X96806Y101354D01*
X96411Y102655D01*
X95770Y103855D01*
X94907Y104907D01*
X93855Y105770D01*
X92655Y106411D01*
X91354Y106806D01*
X90000Y106939D01*
D02*
G37*
G36*
X55963Y48925D02*
X53513D01*
Y47825D01*
X55963D01*
Y48925D01*
D02*
G37*
G36*
X59665Y46846D02*
X57000D01*
Y43000D01*
X59665D01*
Y46846D01*
D02*
G37*
G36*
X56000D02*
X53335D01*
Y43000D01*
X56000D01*
Y46846D01*
D02*
G37*
G36*
X59665Y42000D02*
X57000D01*
Y38154D01*
X59665D01*
Y42000D01*
D02*
G37*
G36*
X56000D02*
X53335D01*
Y38154D01*
X56000D01*
Y42000D01*
D02*
G37*
G36*
X59665Y37346D02*
X57000D01*
Y33500D01*
X59665D01*
Y37346D01*
D02*
G37*
G36*
X56000D02*
X53335D01*
Y33500D01*
X56000D01*
Y37346D01*
D02*
G37*
G36*
X59665Y32500D02*
X57000D01*
Y28654D01*
X59665D01*
Y32500D01*
D02*
G37*
G36*
X56000D02*
X53335D01*
Y28654D01*
X56000D01*
Y32500D01*
D02*
G37*
G36*
X113500Y23987D02*
X112468Y23851D01*
X111507Y23453D01*
X110681Y22819D01*
X110047Y21993D01*
X109649Y21032D01*
X109513Y20000D01*
X109649Y18968D01*
X110047Y18007D01*
X110681Y17181D01*
X111507Y16547D01*
X112468Y16149D01*
X113500Y16013D01*
X114532Y16149D01*
X115493Y16547D01*
X116319Y17181D01*
X116953Y18007D01*
X117351Y18968D01*
X117487Y20000D01*
X117351Y21032D01*
X116953Y21993D01*
X116319Y22819D01*
X115493Y23453D01*
X114532Y23851D01*
X113500Y23987D01*
D02*
G37*
G36*
X117453Y13953D02*
X114000D01*
Y10500D01*
X117453D01*
Y13953D01*
D02*
G37*
G36*
X113000D02*
X109547D01*
Y10500D01*
X113000D01*
Y13953D01*
D02*
G37*
G36*
X117453Y9500D02*
X114000D01*
Y6047D01*
X117453D01*
Y9500D01*
D02*
G37*
G36*
X113000D02*
X109547D01*
Y6047D01*
X113000D01*
Y9500D01*
D02*
G37*
G36*
X90000Y16939D02*
X88646Y16806D01*
X87345Y16411D01*
X86145Y15769D01*
X85093Y14907D01*
X84231Y13855D01*
X83589Y12655D01*
X83194Y11354D01*
X83061Y10000D01*
X83194Y8646D01*
X83589Y7345D01*
X84231Y6145D01*
X85093Y5093D01*
X86145Y4231D01*
X87345Y3589D01*
X88646Y3194D01*
X90000Y3061D01*
X91354Y3194D01*
X92655Y3589D01*
X93855Y4231D01*
X94907Y5093D01*
X95770Y6145D01*
X96411Y7345D01*
X96806Y8646D01*
X96939Y10000D01*
X96806Y11354D01*
X96411Y12655D01*
X95770Y13855D01*
X94907Y14907D01*
X93855Y15769D01*
X92655Y16411D01*
X91354Y16806D01*
X90000Y16939D01*
D02*
G37*
G36*
X14000Y103921D02*
Y100500D01*
X17421D01*
X17351Y101032D01*
X16953Y101993D01*
X16319Y102819D01*
X15493Y103453D01*
X14532Y103851D01*
X14000Y103921D01*
D02*
G37*
G36*
X13000D02*
X12468Y103851D01*
X11507Y103453D01*
X10681Y102819D01*
X10047Y101993D01*
X9649Y101032D01*
X9579Y100500D01*
X13000D01*
Y103921D01*
D02*
G37*
G36*
X17421Y99500D02*
X14000D01*
Y96079D01*
X14532Y96149D01*
X15493Y96547D01*
X16319Y97181D01*
X16953Y98007D01*
X17351Y98968D01*
X17421Y99500D01*
D02*
G37*
G36*
X13000D02*
X9579D01*
X9649Y98968D01*
X10047Y98007D01*
X10681Y97181D01*
X11507Y96547D01*
X12468Y96149D01*
X13000Y96079D01*
Y99500D01*
D02*
G37*
G36*
X51000Y100530D02*
X50086Y100410D01*
X49235Y100057D01*
X48504Y99496D01*
X47943Y98765D01*
X47590Y97914D01*
X47470Y97000D01*
X47590Y96086D01*
X47943Y95235D01*
X48504Y94504D01*
X49235Y93943D01*
X50086Y93590D01*
X51000Y93470D01*
X51914Y93590D01*
X52765Y93943D01*
X53496Y94504D01*
X54057Y95235D01*
X54113Y95369D01*
X57153D01*
Y90965D01*
X74347D01*
Y97295D01*
X60642D01*
X59784Y98154D01*
X59254Y98507D01*
X58630Y98631D01*
X54113D01*
X54057Y98765D01*
X53496Y99496D01*
X52765Y100057D01*
X51914Y100410D01*
X51000Y100530D01*
D02*
G37*
G36*
X74347Y86665D02*
X70500D01*
Y84000D01*
X74347D01*
Y86665D01*
D02*
G37*
G36*
X61000D02*
X57153D01*
Y84000D01*
X61000D01*
Y86665D01*
D02*
G37*
G36*
X74347Y83000D02*
X70500D01*
Y80335D01*
X74347D01*
Y83000D01*
D02*
G37*
G36*
X69500Y86665D02*
X62000D01*
Y83500D01*
Y80335D01*
X69500D01*
Y83500D01*
Y86665D01*
D02*
G37*
G36*
X61000Y83000D02*
X57153D01*
Y80335D01*
X61000D01*
Y83000D01*
D02*
G37*
G36*
X78937Y79175D02*
X76487D01*
Y78075D01*
X78937D01*
Y79175D01*
D02*
G37*
G36*
X75487D02*
X73037D01*
Y78075D01*
X75487D01*
Y79175D01*
D02*
G37*
G36*
X17453Y83953D02*
X14000D01*
Y80500D01*
X17453D01*
Y83953D01*
D02*
G37*
G36*
X13000D02*
X9547D01*
Y80500D01*
X13000D01*
Y83953D01*
D02*
G37*
G36*
X52513Y79175D02*
X50063D01*
Y78075D01*
X52513D01*
Y79175D01*
D02*
G37*
G36*
X43500Y80480D02*
Y77815D01*
X47346D01*
Y80480D01*
X43500D01*
D02*
G37*
G36*
X33500D02*
X29654D01*
Y77815D01*
X33500D01*
Y80480D01*
D02*
G37*
G36*
X17453Y79500D02*
X14000D01*
Y76047D01*
X17453D01*
Y79500D01*
D02*
G37*
G36*
X13000D02*
X9547D01*
Y76047D01*
X13000D01*
Y79500D01*
D02*
G37*
G36*
X47346Y76815D02*
X43500D01*
Y74150D01*
X47346D01*
Y76815D01*
D02*
G37*
G36*
X33500D02*
X29654D01*
Y74150D01*
X33500D01*
Y76815D01*
D02*
G37*
G36*
X38346Y80480D02*
X38153Y80480D01*
X34500D01*
Y77315D01*
Y74150D01*
X38153D01*
X38654Y74150D01*
X38846Y74150D01*
X42500D01*
Y77315D01*
Y80480D01*
X38846D01*
X38346Y80480D01*
D02*
G37*
G36*
X13500Y63987D02*
X12468Y63851D01*
X11507Y63453D01*
X10681Y62819D01*
X10047Y61993D01*
X9649Y61032D01*
X9513Y60000D01*
X9649Y58968D01*
X10047Y58007D01*
X10681Y57181D01*
X11507Y56547D01*
X12468Y56149D01*
X13500Y56013D01*
X14532Y56149D01*
X15493Y56547D01*
X16319Y57181D01*
X16953Y58007D01*
X17351Y58968D01*
X17487Y60000D01*
X17351Y61032D01*
X16953Y61993D01*
X16319Y62819D01*
X15493Y63453D01*
X14532Y63851D01*
X13500Y63987D01*
D02*
G37*
G36*
Y16939D02*
X12146Y16806D01*
X10845Y16411D01*
X9645Y15769D01*
X8593Y14907D01*
X7730Y13855D01*
X7089Y12655D01*
X6694Y11354D01*
X6561Y10000D01*
X6694Y8646D01*
X7089Y7345D01*
X7730Y6145D01*
X8593Y5093D01*
X9645Y4231D01*
X10845Y3589D01*
X12146Y3194D01*
X13500Y3061D01*
X14854Y3194D01*
X16155Y3589D01*
X17355Y4231D01*
X18407Y5093D01*
X19270Y6145D01*
X19911Y7345D01*
X20306Y8646D01*
X20439Y10000D01*
X20306Y11354D01*
X19911Y12655D01*
X19270Y13855D01*
X18407Y14907D01*
X17355Y15769D01*
X16155Y16411D01*
X14854Y16806D01*
X13500Y16939D01*
D02*
G37*
%LPD*%
D10*
X75987Y77575D02*
D03*
Y75016D02*
D03*
Y72457D02*
D03*
Y69898D02*
D03*
Y67339D02*
D03*
Y64780D02*
D03*
Y62220D02*
D03*
Y59661D02*
D03*
Y57102D02*
D03*
Y54543D02*
D03*
Y51984D02*
D03*
Y49425D02*
D03*
X53013D02*
D03*
Y51984D02*
D03*
Y54543D02*
D03*
Y57102D02*
D03*
Y59661D02*
D03*
Y62220D02*
D03*
Y64780D02*
D03*
Y67339D02*
D03*
Y69898D02*
D03*
Y72457D02*
D03*
Y75016D02*
D03*
Y77575D02*
D03*
D11*
X61500Y94130D02*
D03*
Y83500D02*
D03*
X34000Y66685D02*
D03*
Y77315D02*
D03*
X70000Y94130D02*
D03*
Y83500D02*
D03*
X43000Y66685D02*
D03*
Y77315D02*
D03*
D12*
X67130Y33000D02*
D03*
X56500D02*
D03*
X67130Y42500D02*
D03*
X56500D02*
D03*
D13*
X75987Y46987D02*
Y49425D01*
X67130Y33000D02*
Y42500D01*
X75987Y49425D02*
Y51984D01*
X52970Y72500D02*
X53013Y72457D01*
Y72543D02*
Y75016D01*
X49516Y51984D02*
X53013D01*
X48000Y53500D02*
X49516Y51984D01*
X48000Y53500D02*
Y58500D01*
X49161Y59661D01*
X53013D01*
X47016Y49484D02*
X49516Y51984D01*
X34000Y66685D02*
X43000D01*
X47465Y62220D02*
X53013D01*
X43000Y66685D02*
X47465Y62220D01*
X27500Y61000D02*
X28315D01*
X34000Y66685D01*
X61500Y83500D02*
X70000D01*
X61500Y94130D02*
X70000D01*
X58630Y97000D02*
X61500Y94130D01*
X75987Y75016D02*
X82516D01*
X109000Y87000D02*
X112000Y90000D01*
X106500Y93000D02*
X113500Y100000D01*
X75987Y72457D02*
X93957D01*
X109000Y83500D02*
Y87000D01*
X93957Y72457D02*
X106500Y85000D01*
Y93000D01*
X75987Y69898D02*
X95398D01*
X109000Y83500D01*
X75987Y67339D02*
X98500D01*
X111161Y80000D01*
X113500D01*
X101280Y64780D02*
X106250Y69750D01*
X113250D01*
X75987Y62220D02*
X111280D01*
X75987Y57102D02*
X97398D01*
X113500Y41000D01*
Y40000D02*
Y41000D01*
X75987Y59661D02*
X103839D01*
X111839Y51661D01*
X113500D01*
X75987Y64780D02*
X101280D01*
X14016Y49484D02*
X47016D01*
X43000Y77315D02*
X45438D01*
X51000Y97000D02*
X58630D01*
X82516Y75016D02*
X84500Y77000D01*
X86000D01*
X67130Y42500D02*
X74000D01*
X75000Y43500D01*
Y46000D01*
X75987Y46987D01*
D14*
X13500Y100000D02*
D03*
Y90000D02*
D03*
Y60000D02*
D03*
X113500Y20000D02*
D03*
Y80000D02*
D03*
Y90000D02*
D03*
Y70000D02*
D03*
Y60000D02*
D03*
Y50000D02*
D03*
Y40000D02*
D03*
D15*
X13500Y80000D02*
D03*
Y50000D02*
D03*
X113500Y10000D02*
D03*
Y100000D02*
D03*
D16*
X13500Y10000D02*
D03*
X90000Y100000D02*
D03*
Y10000D02*
D03*
D17*
X27500Y61000D02*
D03*
X51000Y97000D02*
D03*
X86000Y77000D02*
D03*
X75000Y43500D02*
D03*
M02*
