G04 Layer_Color=32896*
%FSLAX25Y25*%
%MOIN*%
G70*
G01*
G75*
%ADD21C,0.01000*%
D21*
X99820Y36627D02*
X100819Y37627D01*
X102819D01*
X103818Y36627D01*
Y32629D01*
X102819Y31629D01*
X100819D01*
X99820Y32629D01*
X96821Y31629D02*
X94821D01*
X93822Y32629D01*
Y34628D01*
X94821Y35628D01*
X96821D01*
X97820Y34628D01*
Y32629D01*
X96821Y31629D01*
X91822Y29630D02*
Y35628D01*
X88823D01*
X87823Y34628D01*
Y32629D01*
X88823Y31629D01*
X91822D01*
X85824Y35628D02*
Y32629D01*
X84825Y31629D01*
X81826D01*
Y30629D01*
X82825Y29630D01*
X83825D01*
X81826Y31629D02*
Y35628D01*
X79826D02*
Y31629D01*
Y33628D01*
X78826Y34628D01*
X77827Y35628D01*
X76827D01*
X73828Y31629D02*
X71829D01*
X72828D01*
Y35628D01*
X73828D01*
X66830Y29630D02*
X65831D01*
X64831Y30629D01*
Y35628D01*
X67830D01*
X68830Y34628D01*
Y32629D01*
X67830Y31629D01*
X64831D01*
X62832Y37627D02*
Y31629D01*
Y34628D01*
X61832Y35628D01*
X59833D01*
X58833Y34628D01*
Y31629D01*
X55834Y36627D02*
Y35628D01*
X56833D01*
X54834D01*
X55834D01*
Y32629D01*
X54834Y31629D01*
X43838D02*
X45837Y33628D01*
Y35628D01*
X43838Y37627D01*
X36840Y35628D02*
X39839D01*
X40839Y34628D01*
Y32629D01*
X39839Y31629D01*
X36840D01*
X34841D02*
X32841Y33628D01*
Y35628D01*
X34841Y37627D01*
X19846Y31629D02*
X23844D01*
X19846Y35628D01*
Y36627D01*
X20845Y37627D01*
X22844D01*
X23844Y36627D01*
X17846D02*
X16847Y37627D01*
X14847D01*
X13848Y36627D01*
Y32629D01*
X14847Y31629D01*
X16847D01*
X17846Y32629D01*
Y36627D01*
X11848Y31629D02*
X9849D01*
X10848D01*
Y37627D01*
X11848Y36627D01*
X6850D02*
X5850Y37627D01*
X3851D01*
X2851Y36627D01*
Y35628D01*
X3851Y34628D01*
X2851Y33628D01*
Y32629D01*
X3851Y31629D01*
X5850D01*
X6850Y32629D01*
Y33628D01*
X5850Y34628D01*
X6850Y35628D01*
Y36627D01*
X5850Y34628D02*
X3851D01*
X49836Y26030D02*
Y20032D01*
X46837D01*
X45837Y21032D01*
Y25030D01*
X46837Y26030D01*
X49836D01*
X43838Y20032D02*
X41838D01*
X42838D01*
Y24031D01*
X43838D01*
X38839Y20032D02*
X36840D01*
X37840D01*
Y26030D01*
X38839D01*
X33841Y24031D02*
Y21032D01*
X32841Y20032D01*
X29842D01*
Y24031D01*
X27843Y20032D02*
Y26030D01*
Y22031D02*
X24844Y24031D01*
X27843Y22031D02*
X24844Y20032D01*
X20845Y24031D02*
X18846D01*
X17846Y23031D01*
Y20032D01*
X20845D01*
X21845Y21032D01*
X20845Y22031D01*
X17846D01*
X9849Y26030D02*
Y20032D01*
Y23031D01*
X5850D01*
Y26030D01*
Y20032D01*
X3851D02*
Y21032D01*
X2851D01*
Y20032D01*
X3851D01*
M02*
