G04 Layer_Physical_Order=2*
G04 Layer_Color=16711680*
%FSLAX25Y25*%
%MOIN*%
G70*
G01*
G75*
%ADD13C,0.05906*%
%ADD14R,0.05906X0.05906*%
%ADD15C,0.11811*%
%ADD16C,0.05000*%
G36*
X125869Y1631D02*
X48000D01*
X48000Y21000D01*
Y40500D01*
Y48500D01*
X50000Y50500D01*
X56500D01*
X72500Y76000D01*
X73000Y76500D01*
X79655D01*
X84000Y81500D01*
Y87500D01*
X84000Y111869D01*
X125869D01*
Y1631D01*
D02*
G37*
G36*
X82980Y87500D02*
Y81881D01*
X79190Y77520D01*
X73000D01*
X72610Y77442D01*
X72279Y77221D01*
X71779Y76721D01*
X71715Y76626D01*
X71636Y76542D01*
X55936Y51520D01*
X50000D01*
X49610Y51442D01*
X49279Y51221D01*
X47279Y49221D01*
X47058Y48890D01*
X46980Y48500D01*
Y40500D01*
Y21000D01*
X46980Y1631D01*
X1631D01*
Y111869D01*
X82980D01*
X82980Y87500D01*
D02*
G37*
%LPC*%
G36*
X117453Y103953D02*
X109547D01*
Y96047D01*
X117453D01*
Y103953D01*
D02*
G37*
G36*
X93500Y106939D02*
X92146Y106806D01*
X90845Y106411D01*
X89645Y105770D01*
X88593Y104907D01*
X87730Y103855D01*
X87089Y102655D01*
X86694Y101354D01*
X86561Y100000D01*
X86694Y98646D01*
X87089Y97345D01*
X87730Y96145D01*
X88593Y95093D01*
X89645Y94231D01*
X90845Y93589D01*
X92146Y93194D01*
X93500Y93061D01*
X94854Y93194D01*
X96155Y93589D01*
X97355Y94231D01*
X98407Y95093D01*
X99269Y96145D01*
X99911Y97345D01*
X100306Y98646D01*
X100439Y100000D01*
X100306Y101354D01*
X99911Y102655D01*
X99269Y103855D01*
X98407Y104907D01*
X97355Y105770D01*
X96155Y106411D01*
X94854Y106806D01*
X93500Y106939D01*
D02*
G37*
G36*
X113500Y93987D02*
X112468Y93851D01*
X111507Y93453D01*
X110681Y92819D01*
X110047Y91993D01*
X109649Y91032D01*
X109513Y90000D01*
X109649Y88968D01*
X110047Y88007D01*
X110681Y87181D01*
X111507Y86547D01*
X112468Y86149D01*
X113500Y86013D01*
X114532Y86149D01*
X115493Y86547D01*
X116319Y87181D01*
X116953Y88007D01*
X117351Y88968D01*
X117487Y90000D01*
X117351Y91032D01*
X116953Y91993D01*
X116319Y92819D01*
X115493Y93453D01*
X114532Y93851D01*
X113500Y93987D01*
D02*
G37*
G36*
X86500Y80464D02*
Y77500D01*
X89464D01*
X89410Y77914D01*
X89057Y78765D01*
X88496Y79496D01*
X87765Y80057D01*
X86914Y80410D01*
X86500Y80464D01*
D02*
G37*
G36*
X85500D02*
X85086Y80410D01*
X84235Y80057D01*
X83504Y79496D01*
X82943Y78765D01*
X82590Y77914D01*
X82536Y77500D01*
X85500D01*
Y80464D01*
D02*
G37*
G36*
X113500Y83987D02*
X112468Y83851D01*
X111507Y83453D01*
X110681Y82819D01*
X110047Y81993D01*
X109649Y81032D01*
X109513Y80000D01*
X109649Y78968D01*
X110047Y78007D01*
X110681Y77181D01*
X111507Y76547D01*
X112468Y76149D01*
X113500Y76013D01*
X114532Y76149D01*
X115493Y76547D01*
X116319Y77181D01*
X116953Y78007D01*
X117351Y78968D01*
X117487Y80000D01*
X117351Y81032D01*
X116953Y81993D01*
X116319Y82819D01*
X115493Y83453D01*
X114532Y83851D01*
X113500Y83987D01*
D02*
G37*
G36*
X89464Y76500D02*
X86500D01*
Y73536D01*
X86914Y73590D01*
X87765Y73943D01*
X88496Y74504D01*
X89057Y75235D01*
X89410Y76086D01*
X89464Y76500D01*
D02*
G37*
G36*
X85500D02*
X82536D01*
X82590Y76086D01*
X82943Y75235D01*
X83504Y74504D01*
X84235Y73943D01*
X85086Y73590D01*
X85500Y73536D01*
Y76500D01*
D02*
G37*
G36*
X113500Y73987D02*
X112468Y73851D01*
X111507Y73453D01*
X110681Y72819D01*
X110047Y71993D01*
X109649Y71032D01*
X109513Y70000D01*
X109649Y68968D01*
X110047Y68007D01*
X110681Y67181D01*
X111507Y66547D01*
X112468Y66149D01*
X113500Y66013D01*
X114532Y66149D01*
X115493Y66547D01*
X116319Y67181D01*
X116953Y68007D01*
X117351Y68968D01*
X117487Y70000D01*
X117351Y71032D01*
X116953Y71993D01*
X116319Y72819D01*
X115493Y73453D01*
X114532Y73851D01*
X113500Y73987D01*
D02*
G37*
G36*
Y63987D02*
X112468Y63851D01*
X111507Y63453D01*
X110681Y62819D01*
X110047Y61993D01*
X109649Y61032D01*
X109513Y60000D01*
X109649Y58968D01*
X110047Y58007D01*
X110681Y57181D01*
X111507Y56547D01*
X112468Y56149D01*
X113500Y56013D01*
X114532Y56149D01*
X115493Y56547D01*
X116319Y57181D01*
X116953Y58007D01*
X117351Y58968D01*
X117487Y60000D01*
X117351Y61032D01*
X116953Y61993D01*
X116319Y62819D01*
X115493Y63453D01*
X114532Y63851D01*
X113500Y63987D01*
D02*
G37*
G36*
Y53987D02*
X112468Y53851D01*
X111507Y53453D01*
X110681Y52819D01*
X110047Y51993D01*
X109649Y51032D01*
X109513Y50000D01*
X109649Y48968D01*
X110047Y48007D01*
X110681Y47181D01*
X111507Y46547D01*
X112468Y46149D01*
X113500Y46013D01*
X114532Y46149D01*
X115493Y46547D01*
X116319Y47181D01*
X116953Y48007D01*
X117351Y48968D01*
X117487Y50000D01*
X117351Y51032D01*
X116953Y51993D01*
X116319Y52819D01*
X115493Y53453D01*
X114532Y53851D01*
X113500Y53987D01*
D02*
G37*
G36*
X76500Y45964D02*
Y43000D01*
X79464D01*
X79410Y43414D01*
X79057Y44265D01*
X78496Y44996D01*
X77765Y45557D01*
X76914Y45910D01*
X76500Y45964D01*
D02*
G37*
G36*
X75500D02*
X75086Y45910D01*
X74235Y45557D01*
X73504Y44996D01*
X72943Y44265D01*
X72590Y43414D01*
X72536Y43000D01*
X75500D01*
Y45964D01*
D02*
G37*
G36*
X79464Y42000D02*
X76500D01*
Y39036D01*
X76914Y39090D01*
X77765Y39443D01*
X78496Y40004D01*
X79057Y40735D01*
X79410Y41586D01*
X79464Y42000D01*
D02*
G37*
G36*
X75500D02*
X72536D01*
X72590Y41586D01*
X72943Y40735D01*
X73504Y40004D01*
X74235Y39443D01*
X75086Y39090D01*
X75500Y39036D01*
Y42000D01*
D02*
G37*
G36*
X113500Y43987D02*
X112468Y43851D01*
X111507Y43453D01*
X110681Y42819D01*
X110047Y41993D01*
X109649Y41032D01*
X109513Y40000D01*
X109649Y38968D01*
X110047Y38007D01*
X110681Y37181D01*
X111507Y36547D01*
X112468Y36149D01*
X113500Y36013D01*
X114532Y36149D01*
X115493Y36547D01*
X116319Y37181D01*
X116953Y38007D01*
X117351Y38968D01*
X117487Y40000D01*
X117351Y41032D01*
X116953Y41993D01*
X116319Y42819D01*
X115493Y43453D01*
X114532Y43851D01*
X113500Y43987D01*
D02*
G37*
G36*
X114000Y23921D02*
Y20500D01*
X117421D01*
X117351Y21032D01*
X116953Y21993D01*
X116319Y22819D01*
X115493Y23453D01*
X114532Y23851D01*
X114000Y23921D01*
D02*
G37*
G36*
X113000D02*
X112468Y23851D01*
X111507Y23453D01*
X110681Y22819D01*
X110047Y21993D01*
X109649Y21032D01*
X109579Y20500D01*
X113000D01*
Y23921D01*
D02*
G37*
G36*
X117421Y19500D02*
X114000D01*
Y16079D01*
X114532Y16149D01*
X115493Y16547D01*
X116319Y17181D01*
X116953Y18007D01*
X117351Y18968D01*
X117421Y19500D01*
D02*
G37*
G36*
X113000D02*
X109579D01*
X109649Y18968D01*
X110047Y18007D01*
X110681Y17181D01*
X111507Y16547D01*
X112468Y16149D01*
X113000Y16079D01*
Y19500D01*
D02*
G37*
G36*
X117453Y13953D02*
X109547D01*
Y6047D01*
X117453D01*
Y13953D01*
D02*
G37*
G36*
X83500Y16939D02*
X82146Y16806D01*
X80845Y16411D01*
X79645Y15769D01*
X78593Y14907D01*
X77731Y13855D01*
X77089Y12655D01*
X76694Y11354D01*
X76561Y10000D01*
X76694Y8646D01*
X77089Y7345D01*
X77731Y6145D01*
X78593Y5093D01*
X79645Y4231D01*
X80845Y3589D01*
X82146Y3194D01*
X83500Y3061D01*
X84854Y3194D01*
X86155Y3589D01*
X87355Y4231D01*
X88407Y5093D01*
X89270Y6145D01*
X89911Y7345D01*
X90306Y8646D01*
X90439Y10000D01*
X90306Y11354D01*
X89911Y12655D01*
X89270Y13855D01*
X88407Y14907D01*
X87355Y15769D01*
X86155Y16411D01*
X84854Y16806D01*
X83500Y16939D01*
D02*
G37*
G36*
X51500Y100464D02*
Y97500D01*
X54464D01*
X54410Y97914D01*
X54057Y98765D01*
X53496Y99496D01*
X52765Y100057D01*
X51914Y100410D01*
X51500Y100464D01*
D02*
G37*
G36*
X50500D02*
X50086Y100410D01*
X49235Y100057D01*
X48504Y99496D01*
X47943Y98765D01*
X47590Y97914D01*
X47536Y97500D01*
X50500D01*
Y100464D01*
D02*
G37*
G36*
X13500Y103987D02*
X12468Y103851D01*
X11507Y103453D01*
X10681Y102819D01*
X10047Y101993D01*
X9649Y101032D01*
X9513Y100000D01*
X9649Y98968D01*
X10047Y98007D01*
X10681Y97181D01*
X11507Y96547D01*
X12468Y96149D01*
X13500Y96013D01*
X14532Y96149D01*
X15493Y96547D01*
X16319Y97181D01*
X16953Y98007D01*
X17351Y98968D01*
X17487Y100000D01*
X17351Y101032D01*
X16953Y101993D01*
X16319Y102819D01*
X15493Y103453D01*
X14532Y103851D01*
X13500Y103987D01*
D02*
G37*
G36*
X54464Y96500D02*
X51500D01*
Y93536D01*
X51914Y93590D01*
X52765Y93943D01*
X53496Y94504D01*
X54057Y95235D01*
X54410Y96086D01*
X54464Y96500D01*
D02*
G37*
G36*
X50500D02*
X47536D01*
X47590Y96086D01*
X47943Y95235D01*
X48504Y94504D01*
X49235Y93943D01*
X50086Y93590D01*
X50500Y93536D01*
Y96500D01*
D02*
G37*
G36*
X14000Y93921D02*
Y90500D01*
X17421D01*
X17351Y91032D01*
X16953Y91993D01*
X16319Y92819D01*
X15493Y93453D01*
X14532Y93851D01*
X14000Y93921D01*
D02*
G37*
G36*
X13000D02*
X12468Y93851D01*
X11507Y93453D01*
X10681Y92819D01*
X10047Y91993D01*
X9649Y91032D01*
X9579Y90500D01*
X13000D01*
Y93921D01*
D02*
G37*
G36*
X17421Y89500D02*
X14000D01*
Y86079D01*
X14532Y86149D01*
X15493Y86547D01*
X16319Y87181D01*
X16953Y88007D01*
X17351Y88968D01*
X17421Y89500D01*
D02*
G37*
G36*
X13000D02*
X9579D01*
X9649Y88968D01*
X10047Y88007D01*
X10681Y87181D01*
X11507Y86547D01*
X12468Y86149D01*
X13000Y86079D01*
Y89500D01*
D02*
G37*
G36*
X17453Y83953D02*
X9547D01*
Y76047D01*
X17453D01*
Y83953D01*
D02*
G37*
G36*
X28000Y64464D02*
Y61500D01*
X30964D01*
X30910Y61914D01*
X30557Y62765D01*
X29996Y63496D01*
X29265Y64057D01*
X28414Y64410D01*
X28000Y64464D01*
D02*
G37*
G36*
X27000D02*
X26586Y64410D01*
X25735Y64057D01*
X25004Y63496D01*
X24443Y62765D01*
X24090Y61914D01*
X24036Y61500D01*
X27000D01*
Y64464D01*
D02*
G37*
G36*
X14000Y63921D02*
Y60500D01*
X17421D01*
X17351Y61032D01*
X16953Y61993D01*
X16319Y62819D01*
X15493Y63453D01*
X14532Y63851D01*
X14000Y63921D01*
D02*
G37*
G36*
X13000D02*
X12468Y63851D01*
X11507Y63453D01*
X10681Y62819D01*
X10047Y61993D01*
X9649Y61032D01*
X9579Y60500D01*
X13000D01*
Y63921D01*
D02*
G37*
G36*
X30964Y60500D02*
X28000D01*
Y57536D01*
X28414Y57590D01*
X29265Y57943D01*
X29996Y58504D01*
X30557Y59235D01*
X30910Y60086D01*
X30964Y60500D01*
D02*
G37*
G36*
X27000D02*
X24036D01*
X24090Y60086D01*
X24443Y59235D01*
X25004Y58504D01*
X25735Y57943D01*
X26586Y57590D01*
X27000Y57536D01*
Y60500D01*
D02*
G37*
G36*
X17421Y59500D02*
X14000D01*
Y56079D01*
X14532Y56149D01*
X15493Y56547D01*
X16319Y57181D01*
X16953Y58007D01*
X17351Y58968D01*
X17421Y59500D01*
D02*
G37*
G36*
X13000D02*
X9579D01*
X9649Y58968D01*
X10047Y58007D01*
X10681Y57181D01*
X11507Y56547D01*
X12468Y56149D01*
X13000Y56079D01*
Y59500D01*
D02*
G37*
G36*
X17453Y53953D02*
X9547D01*
Y46047D01*
X17453D01*
Y53953D01*
D02*
G37*
G36*
X13500Y16939D02*
X12146Y16806D01*
X10845Y16411D01*
X9645Y15769D01*
X8593Y14907D01*
X7730Y13855D01*
X7089Y12655D01*
X6694Y11354D01*
X6561Y10000D01*
X6694Y8646D01*
X7089Y7345D01*
X7730Y6145D01*
X8593Y5093D01*
X9645Y4231D01*
X10845Y3589D01*
X12146Y3194D01*
X13500Y3061D01*
X14854Y3194D01*
X16155Y3589D01*
X17355Y4231D01*
X18407Y5093D01*
X19270Y6145D01*
X19911Y7345D01*
X20306Y8646D01*
X20439Y10000D01*
X20306Y11354D01*
X19911Y12655D01*
X19270Y13855D01*
X18407Y14907D01*
X17355Y15769D01*
X16155Y16411D01*
X14854Y16806D01*
X13500Y16939D01*
D02*
G37*
%LPD*%
D13*
Y100000D02*
D03*
Y90000D02*
D03*
Y60000D02*
D03*
X113500Y20000D02*
D03*
Y80000D02*
D03*
Y90000D02*
D03*
Y70000D02*
D03*
Y60000D02*
D03*
Y50000D02*
D03*
Y40000D02*
D03*
D14*
X13500Y80000D02*
D03*
Y50000D02*
D03*
X113500Y10000D02*
D03*
Y100000D02*
D03*
D15*
X13500Y10000D02*
D03*
X93500Y100000D02*
D03*
X83500Y10000D02*
D03*
D16*
X27500Y61000D02*
D03*
X76000Y42500D02*
D03*
X51000Y97000D02*
D03*
X86000Y77000D02*
D03*
M02*
