M48
;Layer_Color=9474304
;FILE_FORMAT=2:5
INCH,TZ
;TYPE=PLATED
T1F00S00C0.02800
T2F00S00C0.03543
;TYPE=NON_PLATED
T3F00S00C0.11811
%
T01
X27500Y61000
X51000Y97000
X86000Y77000
X75000Y43500
T02
X13500Y50000
Y60000
Y80000
Y90000
X113500
Y80000
Y70000
Y60000
Y50000
Y40000
Y20000
Y10000
Y100000
X13500
T03
X13500Y10000
X90000
Y100000
M30
