G04 Layer_Color=65535*
%FSLAX25Y25*%
%MOIN*%
G70*
G01*
G75*
%ADD18C,0.00600*%
%ADD19C,0.00787*%
%ADD20C,0.00200*%
%ADD21C,0.01000*%
D18*
X61500Y75018D02*
G03*
X61500Y75018I-1800J0D01*
G01*
X55513Y78518D02*
X73487D01*
Y48482D02*
Y78518D01*
X55513Y48482D02*
X73487D01*
X55513D02*
Y78518D01*
D19*
X8500Y75000D02*
X18500D01*
X8500D02*
Y105000D01*
X18500D01*
Y75000D02*
Y105000D01*
X8500Y45000D02*
Y65000D01*
Y45000D02*
X18500D01*
Y65000D01*
X8500D02*
X18500D01*
X108500Y5000D02*
Y25000D01*
Y5000D02*
X118500D01*
Y25000D01*
X108500D02*
X118500D01*
X64453Y87240D02*
Y90390D01*
X58547Y87240D02*
Y90390D01*
X60240Y30047D02*
X63390D01*
X60240Y35953D02*
X63390D01*
X31047Y70425D02*
Y73575D01*
X36953Y70425D02*
Y73575D01*
X108500Y35000D02*
X118500D01*
X108500D02*
Y105000D01*
X118500D01*
Y35000D02*
Y105000D01*
X60240Y39547D02*
X63390D01*
X60240Y45453D02*
X63390D01*
X72953Y87240D02*
Y90390D01*
X67047Y87240D02*
Y90390D01*
X40047Y70425D02*
Y73575D01*
X45953Y70425D02*
Y73575D01*
D20*
X56413Y77618D02*
X72587D01*
Y49382D02*
Y77618D01*
X56413Y49382D02*
X72587D01*
X56413D02*
Y77618D01*
D21*
X73486Y96086D02*
Y102084D01*
X76486D01*
X77485Y101084D01*
Y99085D01*
X76486Y98085D01*
X73486D01*
X75486D02*
X77485Y96086D01*
X83483Y101084D02*
X82484Y102084D01*
X80484D01*
X79484Y101084D01*
Y100084D01*
X80484Y99085D01*
X82484D01*
X83483Y98085D01*
Y97085D01*
X82484Y96086D01*
X80484D01*
X79484Y97085D01*
X85483Y102084D02*
X89481D01*
X87482D01*
Y96086D01*
X95479Y101084D02*
X94480Y102084D01*
X92480D01*
X91481Y101084D01*
Y100084D01*
X92480Y99085D01*
X94480D01*
X95479Y98085D01*
Y97085D01*
X94480Y96086D01*
X92480D01*
X91481Y97085D01*
X101477Y102084D02*
X97479D01*
Y96086D01*
X101477D01*
X97479Y99085D02*
X99478D01*
X103477Y102084D02*
Y96086D01*
X107475D01*
X89481Y91486D02*
X88482Y92486D01*
X86482D01*
X85483Y91486D01*
Y90487D01*
X86482Y89487D01*
X88482D01*
X89481Y88487D01*
Y87488D01*
X88482Y86488D01*
X86482D01*
X85483Y87488D01*
X95479Y91486D02*
X94480Y92486D01*
X92480D01*
X91481Y91486D01*
Y87488D01*
X92480Y86488D01*
X94480D01*
X95479Y87488D01*
X97479Y92486D02*
Y86488D01*
X101477D01*
X103477Y92486D02*
Y86488D01*
Y88487D01*
X107475Y92486D01*
X104476Y89487D01*
X107475Y86488D01*
X101477Y81889D02*
X100478Y82888D01*
X98478D01*
X97479Y81889D01*
Y77890D01*
X98478Y76890D01*
X100478D01*
X101477Y77890D01*
X107475Y81889D02*
X106476Y82888D01*
X104476D01*
X103477Y81889D01*
Y80889D01*
X104476Y79889D01*
X106476D01*
X107475Y78890D01*
Y77890D01*
X106476Y76890D01*
X104476D01*
X103477Y77890D01*
X95479Y72291D02*
X94480Y73291D01*
X92480D01*
X91481Y72291D01*
Y71291D01*
X92480Y70292D01*
X94480D01*
X95479Y69292D01*
Y68292D01*
X94480Y67293D01*
X92480D01*
X91481Y68292D01*
X97479Y73291D02*
Y67293D01*
X100478D01*
X101477Y68292D01*
Y72291D01*
X100478Y73291D01*
X97479D01*
X106476D02*
X104476D01*
X103477Y72291D01*
Y68292D01*
X104476Y67293D01*
X106476D01*
X107475Y68292D01*
Y72291D01*
X106476Y73291D01*
X97479Y62693D02*
X96479Y63693D01*
X94480D01*
X93480Y62693D01*
Y61694D01*
X94480Y60694D01*
X96479D01*
X97479Y59694D01*
Y58695D01*
X96479Y57695D01*
X94480D01*
X93480Y58695D01*
X99478Y63693D02*
Y57695D01*
X102477D01*
X103477Y58695D01*
Y62693D01*
X102477Y63693D01*
X99478D01*
X105476D02*
X107475D01*
X106476D01*
Y57695D01*
X105476D01*
X107475D01*
X85483Y54095D02*
Y48097D01*
X89481D01*
X91481Y54095D02*
Y48097D01*
X94480D01*
X95479Y49097D01*
Y53096D01*
X94480Y54095D01*
X91481D01*
X97479Y48097D02*
Y52096D01*
X99478Y54095D01*
X101477Y52096D01*
Y48097D01*
Y51096D01*
X97479D01*
X107475Y53096D02*
X106476Y54095D01*
X104476D01*
X103477Y53096D01*
Y49097D01*
X104476Y48097D01*
X106476D01*
X107475Y49097D01*
X89481Y39499D02*
Y44498D01*
Y38500D02*
Y37500D01*
X91481D02*
Y43498D01*
X94480D01*
X95479Y42498D01*
Y40499D01*
X94480Y39499D01*
X91481D01*
X93480D02*
X95479Y37500D01*
X101477Y42498D02*
X100478Y43498D01*
X98478D01*
X97479Y42498D01*
Y41499D01*
X98478Y40499D01*
X100478D01*
X101477Y39499D01*
Y38500D01*
X100478Y37500D01*
X98478D01*
X97479Y38500D01*
X103477Y43498D02*
X107475D01*
X105476D01*
Y37500D01*
X20500Y103694D02*
X24499D01*
X26498Y100695D02*
X28497D01*
X27498D01*
Y106693D01*
X26498Y105694D01*
X35495Y100695D02*
X31496D01*
X35495Y104694D01*
Y105694D01*
X34495Y106693D01*
X32496D01*
X31496Y105694D01*
X37495Y106693D02*
Y102695D01*
X39494Y100695D01*
X41493Y102695D01*
Y106693D01*
X20500Y91098D02*
Y95096D01*
X22499Y97096D01*
X24499Y95096D01*
Y91098D01*
Y94097D01*
X20500D01*
X30497Y96096D02*
X29497Y97096D01*
X27498D01*
X26498Y96096D01*
Y92097D01*
X27498Y91098D01*
X29497D01*
X30497Y92097D01*
Y94097D01*
X28497D01*
X32496Y91098D02*
Y97096D01*
X36495Y91098D01*
Y97096D01*
X38494D02*
Y91098D01*
X41493D01*
X42493Y92097D01*
Y96096D01*
X41493Y97096D01*
X38494D01*
X20500Y84499D02*
X24499D01*
X22499Y86498D02*
Y82500D01*
X26498Y81500D02*
X28497D01*
X27498D01*
Y87498D01*
X26498Y86498D01*
X35495Y81500D02*
X31496D01*
X35495Y85499D01*
Y86498D01*
X34495Y87498D01*
X32496D01*
X31496Y86498D01*
X37495Y87498D02*
Y83499D01*
X39494Y81500D01*
X41493Y83499D01*
Y87498D01*
X51700Y85798D02*
X55699Y81800D01*
X51700D02*
X55699Y85798D01*
X51700Y83799D02*
X55699D01*
X53699Y81800D02*
Y85798D01*
X16502Y70499D02*
X15502Y69499D01*
Y67500D01*
X16502Y66500D01*
X20500D01*
X21500Y67500D01*
Y69499D01*
X20500Y70499D01*
X21500Y72498D02*
Y74497D01*
Y73498D01*
X15502D01*
X16502Y72498D01*
X24502Y70499D02*
X23502Y69499D01*
Y67500D01*
X24502Y66500D01*
X28500D01*
X29500Y67500D01*
Y69499D01*
X28500Y70499D01*
X29500Y76497D02*
Y72498D01*
X25501Y76497D01*
X24502D01*
X23502Y75497D01*
Y73498D01*
X24502Y72498D01*
X43499Y34498D02*
X42499Y35498D01*
X40500D01*
X39500Y34498D01*
Y30500D01*
X40500Y29500D01*
X42499D01*
X43499Y30500D01*
X45498Y34498D02*
X46498Y35498D01*
X48497D01*
X49497Y34498D01*
Y33499D01*
X48497Y32499D01*
X47497D01*
X48497D01*
X49497Y31499D01*
Y30500D01*
X48497Y29500D01*
X46498D01*
X45498Y30500D01*
X43499Y42998D02*
X42499Y43998D01*
X40500D01*
X39500Y42998D01*
Y39000D01*
X40500Y38000D01*
X42499D01*
X43499Y39000D01*
X48497Y38000D02*
Y43998D01*
X45498Y40999D01*
X49497D01*
X58002Y104499D02*
X57002Y103499D01*
Y101500D01*
X58002Y100500D01*
X62000D01*
X63000Y101500D01*
Y103499D01*
X62000Y104499D01*
X57002Y110497D02*
Y106498D01*
X60001D01*
X59001Y108497D01*
Y109497D01*
X60001Y110497D01*
X62000D01*
X63000Y109497D01*
Y107498D01*
X62000Y106498D01*
X66502Y104499D02*
X65502Y103499D01*
Y101500D01*
X66502Y100500D01*
X70500D01*
X71500Y101500D01*
Y103499D01*
X70500Y104499D01*
X65502Y110497D02*
X66502Y108497D01*
X68501Y106498D01*
X70500D01*
X71500Y107498D01*
Y109497D01*
X70500Y110497D01*
X69501D01*
X68501Y109497D01*
Y106498D01*
X98500Y105000D02*
Y110998D01*
X101499D01*
X102499Y109998D01*
Y107999D01*
X101499Y106999D01*
X98500D01*
X104498Y105000D02*
X106497D01*
X105498D01*
Y110998D01*
X104498Y109998D01*
X2500Y67000D02*
Y72998D01*
X5499D01*
X6499Y71998D01*
Y69999D01*
X5499Y68999D01*
X2500D01*
X12497Y67000D02*
X8498D01*
X12497Y70999D01*
Y71998D01*
X11497Y72998D01*
X9498D01*
X8498Y71998D01*
X98000Y27500D02*
Y33498D01*
X100999D01*
X101999Y32498D01*
Y30499D01*
X100999Y29499D01*
X98000D01*
X103998Y32498D02*
X104998Y33498D01*
X106997D01*
X107997Y32498D01*
Y31499D01*
X106997Y30499D01*
X105997D01*
X106997D01*
X107997Y29499D01*
Y28500D01*
X106997Y27500D01*
X104998D01*
X103998Y28500D01*
X3000Y37000D02*
Y42998D01*
X5999D01*
X6999Y41998D01*
Y39999D01*
X5999Y38999D01*
X3000D01*
X11997Y37000D02*
Y42998D01*
X8998Y39999D01*
X12997D01*
X5000Y25998D02*
Y20000D01*
X7999D01*
X8999Y21000D01*
Y24998D01*
X7999Y25998D01*
X5000D01*
X10998Y20000D02*
Y23999D01*
X12997Y25998D01*
X14997Y23999D01*
Y20000D01*
Y22999D01*
X10998D01*
X20995Y24998D02*
X19995Y25998D01*
X17996D01*
X16996Y24998D01*
Y21000D01*
X17996Y20000D01*
X19995D01*
X20995Y21000D01*
X22994Y25998D02*
X26993D01*
Y24998D01*
X22994Y21000D01*
Y20000D01*
X28992Y25998D02*
X32991D01*
Y24998D01*
X28992Y21000D01*
Y20000D01*
X34990Y24998D02*
X35990Y25998D01*
X37989D01*
X38989Y24998D01*
Y23999D01*
X37989Y22999D01*
X36990D01*
X37989D01*
X38989Y21999D01*
Y21000D01*
X37989Y20000D01*
X35990D01*
X34990Y21000D01*
X40988Y20000D02*
X42988D01*
X41988D01*
Y25998D01*
X40988Y24998D01*
X100499Y15498D02*
X96500D01*
Y12499D01*
X98499Y13499D01*
X99499D01*
X100499Y12499D01*
Y10500D01*
X99499Y9500D01*
X97500D01*
X96500Y10500D01*
X102498Y15498D02*
Y11499D01*
X104497Y9500D01*
X106497Y11499D01*
Y15498D01*
X85000Y24498D02*
Y18500D01*
X87999D01*
X88999Y19500D01*
Y23498D01*
X87999Y24498D01*
X85000D01*
X94997Y23498D02*
X93997Y24498D01*
X91998D01*
X90998Y23498D01*
Y19500D01*
X91998Y18500D01*
X93997D01*
X94997Y19500D01*
Y21499D01*
X92997D01*
X96996Y18500D02*
Y24498D01*
X100995Y18500D01*
Y24498D01*
X102994D02*
Y18500D01*
X105993D01*
X106993Y19500D01*
Y23498D01*
X105993Y24498D01*
X102994D01*
X22500Y55500D02*
Y59499D01*
X24499Y61498D01*
X26499Y59499D01*
Y55500D01*
Y58499D01*
X22500D01*
X32497Y60498D02*
X31497Y61498D01*
X29498D01*
X28498Y60498D01*
Y56500D01*
X29498Y55500D01*
X31497D01*
X32497Y56500D01*
Y58499D01*
X30497D01*
X34496Y55500D02*
Y61498D01*
X38495Y55500D01*
Y61498D01*
X40494D02*
Y55500D01*
X43493D01*
X44493Y56500D01*
Y60498D01*
X43493Y61498D01*
X40494D01*
X22500Y47000D02*
Y50999D01*
X24499Y52998D01*
X26499Y50999D01*
Y47000D01*
Y49999D01*
X22500D01*
X31497Y52998D02*
X29498D01*
X28498Y51998D01*
Y48000D01*
X29498Y47000D01*
X31497D01*
X32497Y48000D01*
Y51998D01*
X31497Y52998D01*
X34496Y50999D02*
Y48000D01*
X35496Y47000D01*
X38495D01*
Y50999D01*
X41494Y51998D02*
Y50999D01*
X40494D01*
X42494D01*
X41494D01*
Y48000D01*
X42494Y47000D01*
M02*
