%FSLAX23Y23*%
%MOMM*%
%SFA1B1*%

%IPPOS*%
%ADD17C,0.152400*%
%ADD18C,0.200000*%
%ADD19C,0.050800*%
%ADD20C,0.253999*%
%LNpcb1-1*%
%LPD*%
G54D17*
X15620Y19054D02*
D01*
X15619Y19086*
X15616Y19118*
X15610Y19149*
X15603Y19180*
X15593Y19210*
X15581Y19240*
X15567Y19269*
X15551Y19296*
X15533Y19323*
X15514Y19348*
X15492Y19372*
X15469Y19394*
X15445Y19414*
X15419Y19433*
X15392Y19450*
X15364Y19465*
X15335Y19478*
X15305Y19489*
X15274Y19498*
X15243Y19504*
X15211Y19509*
X15179Y19511*
X15147*
X15115Y19509*
X15084Y19504*
X15053Y19498*
X15022Y19489*
X14992Y19478*
X14963Y19465*
X14935Y19450*
X14908Y19433*
X14882Y19414*
X14857Y19394*
X14834Y19372*
X14813Y19348*
X14793Y19323*
X14776Y19296*
X14760Y19269*
X14746Y19240*
X14734Y19210*
X14724Y19180*
X14716Y19149*
X14711Y19118*
X14707Y19086*
X14706Y19054*
X14707Y19022*
X14711Y18990*
X14716Y18959*
X14724Y18928*
X14734Y18898*
X14746Y18868*
X14760Y18839*
X14776Y18812*
X14793Y18785*
X14813Y18760*
X14834Y18736*
X14857Y18714*
X14882Y18694*
X14908Y18675*
X14935Y18658*
X14963Y18643*
X14992Y18630*
X15022Y18619*
X15053Y18610*
X15084Y18604*
X15115Y18599*
X15147Y18597*
X15179*
X15211Y18599*
X15243Y18604*
X15274Y18610*
X15305Y18619*
X15335Y18630*
X15364Y18643*
X15392Y18658*
X15419Y18675*
X15445Y18694*
X15469Y18714*
X15492Y18736*
X15514Y18760*
X15533Y18785*
X15551Y18812*
X15567Y18839*
X15581Y18868*
X15593Y18898*
X15603Y18928*
X15610Y18959*
X15616Y18990*
X15619Y19022*
X15620Y19054*
X14100Y19943D02*
X18665D01*
Y12314D02*
Y19943D01*
X14100Y12314D02*
X18665D01*
X14100D02*
Y19943D01*
G54D18*
X2158Y19049D02*
X4698D01*
X2158D02*
Y26669D01*
X4698*
Y19049D02*
Y26669D01*
X2158Y11429D02*
Y16509D01*
Y11429D02*
X4698D01*
Y16509*
X2158D02*
X4698D01*
X27558Y1269D02*
Y6349D01*
Y1269D02*
X30098D01*
Y6349*
X27558D02*
X30098D01*
X16370Y22158D02*
Y22958D01*
X14870Y22158D02*
Y22958D01*
X19672Y6838D02*
Y7638D01*
X18172Y6838D02*
Y7638D01*
X7885Y17887D02*
Y18687D01*
X9385Y17887D02*
Y18687D01*
X27558Y8889D02*
X30098D01*
X27558D02*
Y26669D01*
X30098*
Y8889D02*
Y26669D01*
X17259Y6838D02*
Y7638D01*
X15759Y6838D02*
Y7638D01*
X18529Y22158D02*
Y22958D01*
X17029Y22158D02*
Y22958D01*
X10171Y17887D02*
Y18687D01*
X11671Y17887D02*
Y18687D01*
G54D19*
X14328Y19714D02*
X18437D01*
Y12542D02*
Y19714D01*
X14328Y12542D02*
X18437D01*
X14328D02*
Y19714D01*
G54D20*
X2158Y8660D02*
X3174D01*
Y8406*
X2158Y7390*
Y7136*
X3682Y8660D02*
X4698D01*
Y8406*
X3682Y7390*
Y7136*
X5205Y8406D02*
X5459Y8660D01*
X5967*
X6221Y8406*
Y8152*
X5967Y7898*
X5713*
X5967*
X6221Y7644*
Y7390*
X5967Y7136*
X5459*
X5205Y7390*
X6729Y7136D02*
X7237D01*
X6983*
Y8660*
X6729Y8406*
X2158Y4698D02*
Y6222D01*
X2920*
X3174Y5968*
Y5460*
X2920Y5206*
X2158*
X4698Y5968D02*
X4444Y6222D01*
X3936*
X3682Y5968*
Y4952*
X3936Y4698*
X4444*
X4698Y4952*
X5205Y6222D02*
Y4698D01*
X5967*
X6221Y4952*
Y5206*
X5967Y5460*
X5205*
X5967*
X6221Y5714*
Y5968*
X5967Y6222*
X5205*
X6603Y3301D02*
Y1777D01*
X7365*
X7619Y2031*
Y3047*
X7365Y3301*
X6603*
X8127Y1777D02*
X8635D01*
X8381*
Y2793*
X8127*
X9397Y1777D02*
X9904D01*
X9650*
Y3301*
X9397*
X10666Y2793D02*
Y2031D01*
X10920Y1777*
X11682*
Y2793*
X12190Y1777D02*
Y3301D01*
Y2285D02*
X12951Y2793D01*
X12190Y2285D02*
X12951Y1777D01*
X13967Y2793D02*
X14475D01*
X14729Y2539*
Y1777*
X13967*
X13713Y2031*
X13967Y2285*
X14729*
X16760Y3301D02*
Y1777D01*
Y2539*
X17776*
Y3301*
Y1777*
X18284D02*
Y2031D01*
X18538*
Y1777*
X18284*
X18665Y24405D02*
Y25929D01*
X19427*
X19681Y25675*
Y25167*
X19427Y24913*
X18665*
X19173D02*
X19681Y24405D01*
X21204Y25675D02*
X20950Y25929D01*
X20442*
X20189Y25675*
Y25421*
X20442Y25167*
X20950*
X21204Y24913*
Y24659*
X20950Y24405*
X20442*
X20189Y24659*
X21712Y25929D02*
X22728D01*
X22220*
Y24405*
X24251Y25675D02*
X23997Y25929D01*
X23489*
X23236Y25675*
Y25421*
X23489Y25167*
X23997*
X24251Y24913*
Y24659*
X23997Y24405*
X23489*
X23236Y24659*
X25775Y25929D02*
X24759D01*
Y24405*
X25775*
X24759Y25167D02*
X25267D01*
X26283Y25929D02*
Y24405D01*
X27298*
X22728Y23237D02*
X22474Y23491D01*
X21966*
X21712Y23237*
Y22983*
X21966Y22729*
X22474*
X22728Y22475*
Y22221*
X22474Y21967*
X21966*
X21712Y22221*
X24251Y23237D02*
X23997Y23491D01*
X23489*
X23236Y23237*
Y22221*
X23489Y21967*
X23997*
X24251Y22221*
X24759Y23491D02*
Y21967D01*
X25775*
X26283Y23491D02*
Y21967D01*
Y22475*
X27298Y23491*
X26536Y22729*
X27298Y21967*
X25775Y20799D02*
X25521Y21053D01*
X25013*
X24759Y20799*
Y19784*
X25013Y19530*
X25521*
X25775Y19784*
X27298Y20799D02*
X27044Y21053D01*
X26536*
X26283Y20799*
Y20545*
X26536Y20291*
X27044*
X27298Y20037*
Y19784*
X27044Y19530*
X26536*
X26283Y19784*
X24251Y18361D02*
X23997Y18615D01*
X23489*
X23236Y18361*
Y18107*
X23489Y17854*
X23997*
X24251Y17600*
Y17346*
X23997Y17092*
X23489*
X23236Y17346*
X24759Y18615D02*
Y17092D01*
X25521*
X25775Y17346*
Y18361*
X25521Y18615*
X24759*
X27044D02*
X26536D01*
X26283Y18361*
Y17346*
X26536Y17092*
X27044*
X27298Y17346*
Y18361*
X27044Y18615*
X24759Y15924D02*
X24505Y16177D01*
X23997*
X23743Y15924*
Y15670*
X23997Y15416*
X24505*
X24759Y15162*
Y14908*
X24505Y14654*
X23997*
X23743Y14908*
X25267Y16177D02*
Y14654D01*
X26029*
X26283Y14908*
Y15924*
X26029Y16177*
X25267*
X26790D02*
X27298D01*
X27044*
Y14654*
X26790*
X27298*
X21712Y13740D02*
Y12216D01*
X22728*
X23236Y13740D02*
Y12216D01*
X23997*
X24251Y12470*
Y13486*
X23997Y13740*
X23236*
X24759Y12216D02*
Y13232D01*
X25267Y13740*
X25775Y13232*
Y12216*
Y12978*
X24759*
X27298Y13486D02*
X27044Y13740D01*
X26536*
X26283Y13486*
Y12470*
X26536Y12216*
X27044*
X27298Y12470*
X22728Y10032D02*
Y11302D01*
Y9778D02*
Y9524D01*
X23236D02*
Y11048D01*
X23997*
X24251Y10794*
Y10286*
X23997Y10032*
X23236*
X23743D02*
X24251Y9524D01*
X25775Y10794D02*
X25521Y11048D01*
X25013*
X24759Y10794*
Y10540*
X25013Y10286*
X25521*
X25775Y10032*
Y9778*
X25521Y9524*
X25013*
X24759Y9778*
X26283Y11048D02*
X27298D01*
X26790*
Y9524*
X5206Y26338D02*
X6222D01*
X6730Y25576D02*
X7238D01*
X6984*
Y27100*
X6730Y26846*
X9015Y25576D02*
X8000D01*
X9015Y26592*
Y26846*
X8761Y27100*
X8253*
X8000Y26846*
X9523Y27100D02*
Y26084D01*
X10031Y25576*
X10539Y26084*
Y27100*
X5206Y23138D02*
Y24154D01*
X5714Y24662*
X6222Y24154*
Y23138*
Y23900*
X5206*
X7746Y24408D02*
X7492Y24662D01*
X6984*
X6730Y24408*
Y23392*
X6984Y23138*
X7492*
X7746Y23392*
Y23900*
X7238*
X8253Y23138D02*
Y24662D01*
X9269Y23138*
Y24662*
X9777D02*
Y23138D01*
X10539*
X10793Y23392*
Y24408*
X10539Y24662*
X9777*
X5206Y21462D02*
X6222D01*
X5714Y21970D02*
Y20954D01*
X6730Y20700D02*
X7238D01*
X6984*
Y22224*
X6730Y21970*
X9015Y20700D02*
X8000D01*
X9015Y21716*
Y21970*
X8761Y22224*
X8253*
X8000Y21970*
X9523Y22224D02*
Y21208D01*
X10031Y20700*
X10539Y21208*
Y22224*
X13131Y21792D02*
X14147Y20777D01*
X13131D02*
X14147Y21792D01*
X13131Y21284D02*
X14147D01*
X13639Y20777D02*
Y21792D01*
X4191Y17906D02*
X3937Y17652D01*
Y17144*
X4191Y16890*
X5207*
X5460Y17144*
Y17652*
X5207Y17906*
X5460Y18414D02*
Y18922D01*
Y18668*
X3937*
X4191Y18414*
X6223Y17906D02*
X5969Y17652D01*
Y17144*
X6223Y16890*
X7239*
X7492Y17144*
Y17652*
X7239Y17906*
X7492Y19430D02*
Y18414D01*
X6477Y19430*
X6223*
X5969Y19176*
Y18668*
X6223Y18414*
X13716Y7111D02*
X13462Y6857D01*
Y6349*
X13716Y6095*
X14732*
X14985Y6349*
Y6857*
X14732Y7111*
X13716Y7619D02*
X13462Y7873D01*
Y8381*
X13716Y8635*
X13970*
X14224Y8381*
Y8127*
Y8381*
X14478Y8635*
X14732*
X14985Y8381*
Y7873*
X14732Y7619*
X11430Y7111D02*
X11176Y6857D01*
Y6349*
X11430Y6095*
X12446*
X12699Y6349*
Y6857*
X12446Y7111*
X12699Y8381D02*
X11176D01*
X11938Y7619*
Y8635*
X14859Y26542D02*
X14605Y26288D01*
Y25780*
X14859Y25526*
X15875*
X16128Y25780*
Y26288*
X15875Y26542*
X14605Y28066D02*
Y27050D01*
X15367*
X15113Y27558*
Y27812*
X15367Y28066*
X15875*
X16128Y27812*
Y27304*
X15875Y27050*
X16891Y26542D02*
X16637Y26288D01*
Y25780*
X16891Y25526*
X17907*
X18160Y25780*
Y26288*
X17907Y26542*
X16637Y28066D02*
X16891Y27558D01*
X17399Y27050*
X17907*
X18160Y27304*
Y27812*
X17907Y28066*
X17653*
X17399Y27812*
Y27050*
X27177Y26415D02*
X25654D01*
Y27177*
X25908Y27431*
X26416*
X26670Y27177*
Y26415*
X27177Y27939D02*
Y28447D01*
Y28193*
X25654*
X25908Y27939*
X634Y17017D02*
Y18541D01*
X1396*
X1650Y18287*
Y17779*
X1396Y17525*
X634*
X3174Y17017D02*
X2158D01*
X3174Y18033*
Y18287*
X2920Y18541*
X2412*
X2158Y18287*
X27558Y6857D02*
Y8381D01*
X28320*
X28574Y8127*
Y7619*
X28320Y7365*
X27558*
X29082Y8127D02*
X29336Y8381D01*
X29844*
X30098Y8127*
Y7873*
X29844Y7619*
X29590*
X29844*
X30098Y7365*
Y7111*
X29844Y6857*
X29336*
X29082Y7111*
X761Y9397D02*
Y10921D01*
X1523*
X1777Y10667*
Y10159*
X1523Y9905*
X761*
X3047Y9397D02*
Y10921D01*
X2285Y10159*
X3301*
X25526Y3936D02*
X24510D01*
Y3174*
X25018Y3428*
X25272*
X25526Y3174*
Y2666*
X25272Y2412*
X24764*
X24510Y2666*
X26034Y3936D02*
Y2920D01*
X26542Y2412*
X27050Y2920*
Y3936*
X21589Y6222D02*
Y4698D01*
X22351*
X22605Y4952*
Y5968*
X22351Y6222*
X21589*
X24129Y5968D02*
X23875Y6222D01*
X23367*
X23113Y5968*
Y4952*
X23367Y4698*
X23875*
X24129Y4952*
Y5460*
X23621*
X24636Y4698D02*
Y6222D01*
X25652Y4698*
Y6222*
X26160D02*
Y4698D01*
X26922*
X27176Y4952*
Y5968*
X26922Y6222*
X26160*
X5714Y14096D02*
Y15112D01*
X6222Y15620*
X6730Y15112*
Y14096*
Y14858*
X5714*
X8254Y15366D02*
X8000Y15620D01*
X7492*
X7238Y15366*
Y14350*
X7492Y14096*
X8000*
X8254Y14350*
Y14858*
X7746*
X8761Y14096D02*
Y15620D01*
X9777Y14096*
Y15620*
X10285D02*
Y14096D01*
X11047*
X11301Y14350*
Y15366*
X11047Y15620*
X10285*
X5714Y11937D02*
Y12953D01*
X6222Y13461*
X6730Y12953*
Y11937*
Y12699*
X5714*
X8000Y13461D02*
X7492D01*
X7238Y13207*
Y12191*
X7492Y11937*
X8000*
X8254Y12191*
Y13207*
X8000Y13461*
X8761Y12953D02*
Y12191D01*
X9015Y11937*
X9777*
Y12953*
X10539Y13207D02*
Y12953D01*
X10285*
X10793*
X10539*
Y12191*
X10793Y11937*
M02*