%FSLAX23Y23*%
%MOMM*%
%SFA1B1*%

%IPPOS*%
%ADD13C,1.499997*%
%ADD14R,1.499997X1.499997*%
%ADD15C,2.999994*%
%ADD16C,1.269997*%
%LNpcb1-1*%
%LPD*%
G36*
X31970Y414D02*
X12191D01*
Y5333*
Y10286*
Y12318*
X12699Y12826*
X14350*
X18414Y19303*
X18541Y19430*
X20232*
X21335Y20700*
Y22224*
Y28414*
X31970*
Y414*
G37*
G36*
X21076Y22224D02*
Y20797D01*
X20114Y19689*
X18541*
X18442Y19670*
X18358Y19614*
X18231Y19487*
X18215Y19462*
X18195Y19441*
X14207Y13085*
X12699*
X12600Y13066*
X12516Y13010*
X12008Y12502*
X11952Y12418*
X11932Y12318*
Y10286*
Y5333*
Y414*
X414*
Y28414*
X21076*
Y22224*
G37*
%LNpcb1-2*%
%LPC*%
G36*
X29832Y26403D02*
X27824D01*
Y24395*
X29832*
Y26403*
G37*
G36*
X23748Y27162D02*
X23405Y27128D01*
X23074Y27028*
X22769Y26865*
X22502Y26646*
X22283Y26379*
X22120Y26074*
X22020Y25743*
X21986Y25399*
X22020Y25056*
X22120Y24725*
X22283Y24420*
X22502Y24153*
X22769Y23934*
X23074Y23771*
X23405Y23671*
X23748Y23637*
X24092Y23671*
X24423Y23771*
X24728Y23934*
X24995Y24153*
X25214Y24420*
X25377Y24725*
X25477Y25056*
X25511Y25399*
X25477Y25743*
X25377Y26074*
X25214Y26379*
X24995Y26646*
X24728Y26865*
X24423Y27028*
X24092Y27128*
X23748Y27162*
G37*
G36*
X28828Y23872D02*
X28566Y23838D01*
X28322Y23736*
X28112Y23576*
X27951Y23366*
X27850Y23122*
X27816Y22859*
X27850Y22597*
X27951Y22353*
X28112Y22143*
X28322Y21982*
X28566Y21881*
X28828Y21847*
X29091Y21881*
X29335Y21982*
X29545Y22143*
X29705Y22353*
X29807Y22597*
X29841Y22859*
X29807Y23122*
X29705Y23366*
X29545Y23576*
X29335Y23736*
X29091Y23838*
X28828Y23872*
G37*
G36*
X21970Y20437D02*
Y19684D01*
X22723*
X22710Y19790*
X22620Y20006*
X22477Y20191*
X22292Y20334*
X22076Y20424*
X21970Y20437*
G37*
G36*
X21716D02*
X21611Y20424D01*
X21395Y20334*
X21209Y20191*
X21067Y20006*
X20977Y19790*
X20964Y19684*
X21716*
Y20437*
G37*
G36*
X28828Y21332D02*
X28566Y21298D01*
X28322Y21196*
X28112Y21036*
X27951Y20826*
X27850Y20582*
X27816Y20319*
X27850Y20057*
X27951Y19813*
X28112Y19603*
X28322Y19442*
X28566Y19341*
X28828Y19307*
X29091Y19341*
X29335Y19442*
X29545Y19603*
X29705Y19813*
X29807Y20057*
X29841Y20319*
X29807Y20582*
X29705Y20826*
X29545Y21036*
X29335Y21196*
X29091Y21298*
X28828Y21332*
G37*
G36*
X22723Y19430D02*
X21970D01*
Y18677*
X22076Y18691*
X22292Y18781*
X22477Y18923*
X22620Y19109*
X22710Y19325*
X22723Y19430*
G37*
G36*
X21716D02*
X20964D01*
X20977Y19325*
X21067Y19109*
X21209Y18923*
X21395Y18781*
X21611Y18691*
X21716Y18677*
Y19430*
G37*
G36*
X28828Y18792D02*
X28566Y18758D01*
X28322Y18656*
X28112Y18496*
X27951Y18286*
X27850Y18042*
X27816Y17779*
X27850Y17517*
X27951Y17273*
X28112Y17063*
X28322Y16902*
X28566Y16801*
X28828Y16767*
X29091Y16801*
X29335Y16902*
X29545Y17063*
X29705Y17273*
X29807Y17517*
X29841Y17779*
X29807Y18042*
X29705Y18286*
X29545Y18496*
X29335Y18656*
X29091Y18758*
X28828Y18792*
G37*
G36*
Y16252D02*
X28566Y16218D01*
X28322Y16116*
X28112Y15956*
X27951Y15746*
X27850Y15502*
X27816Y15239*
X27850Y14977*
X27951Y14733*
X28112Y14523*
X28322Y14362*
X28566Y14261*
X28828Y14227*
X29091Y14261*
X29335Y14362*
X29545Y14523*
X29705Y14733*
X29807Y14977*
X29841Y15239*
X29807Y15502*
X29705Y15746*
X29545Y15956*
X29335Y16116*
X29091Y16218*
X28828Y16252*
G37*
G36*
Y13712D02*
X28566Y13678D01*
X28322Y13576*
X28112Y13416*
X27951Y13206*
X27850Y12962*
X27816Y12699*
X27850Y12437*
X27951Y12193*
X28112Y11983*
X28322Y11822*
X28566Y11721*
X28828Y11687*
X29091Y11721*
X29335Y11822*
X29545Y11983*
X29705Y12193*
X29807Y12437*
X29841Y12699*
X29807Y12962*
X29705Y13206*
X29545Y13416*
X29335Y13576*
X29091Y13678*
X28828Y13712*
G37*
G36*
X19430Y11674D02*
Y10921D01*
X20183*
X20170Y11027*
X20080Y11243*
X19937Y11428*
X19752Y11571*
X19536Y11661*
X19430Y11674*
G37*
G36*
X19176D02*
X19071Y11661D01*
X18855Y11571*
X18669Y11428*
X18527Y11243*
X18437Y11027*
X18423Y10921*
X19176*
Y11674*
G37*
G36*
X20183Y10667D02*
X19430D01*
Y9914*
X19536Y9928*
X19752Y10018*
X19937Y10160*
X20080Y10346*
X20170Y10562*
X20183Y10667*
G37*
G36*
X19176D02*
X18423D01*
X18437Y10562*
X18527Y10346*
X18669Y10160*
X18855Y10018*
X19071Y9928*
X19176Y9914*
Y10667*
G37*
G36*
X28828Y11172D02*
X28566Y11138D01*
X28322Y11036*
X28112Y10876*
X27951Y10666*
X27850Y10422*
X27816Y10159*
X27850Y9897*
X27951Y9653*
X28112Y9443*
X28322Y9282*
X28566Y9181*
X28828Y9147*
X29091Y9181*
X29335Y9282*
X29545Y9443*
X29705Y9653*
X29807Y9897*
X29841Y10159*
X29807Y10422*
X29705Y10666*
X29545Y10876*
X29335Y11036*
X29091Y11138*
X28828Y11172*
G37*
G36*
X28955Y6075D02*
Y5206D01*
X29824*
X29807Y5342*
X29705Y5586*
X29545Y5796*
X29335Y5956*
X29091Y6058*
X28955Y6075*
G37*
G36*
X28701D02*
X28566Y6058D01*
X28322Y5956*
X28112Y5796*
X27951Y5586*
X27850Y5342*
X27833Y5206*
X28701*
Y6075*
G37*
G36*
X29824Y4952D02*
X28955D01*
Y4084*
X29091Y4101*
X29335Y4202*
X29545Y4363*
X29705Y4573*
X29807Y4817*
X29824Y4952*
G37*
G36*
X28701D02*
X27833D01*
X27850Y4817*
X27951Y4573*
X28112Y4363*
X28322Y4202*
X28566Y4101*
X28701Y4084*
Y4952*
G37*
G36*
X29832Y3543D02*
X27824D01*
Y1535*
X29832*
Y3543*
G37*
G36*
X21208Y4302D02*
X20865Y4268D01*
X20534Y4168*
X20229Y4005*
X19962Y3786*
X19743Y3519*
X19580Y3214*
X19480Y2883*
X19446Y2539*
X19480Y2196*
X19580Y1865*
X19743Y1560*
X19962Y1293*
X20229Y1074*
X20534Y911*
X20865Y811*
X21208Y777*
X21552Y811*
X21883Y911*
X22188Y1074*
X22455Y1293*
X22674Y1560*
X22837Y1865*
X22937Y2196*
X22971Y2539*
X22937Y2883*
X22837Y3214*
X22674Y3519*
X22455Y3786*
X22188Y4005*
X21883Y4168*
X21552Y4268*
X21208Y4302*
G37*
G36*
X13080Y25517D02*
Y24764D01*
X13833*
X13820Y24870*
X13730Y25086*
X13587Y25271*
X13402Y25414*
X13186Y25504*
X13080Y25517*
G37*
G36*
X12826D02*
X12721Y25504D01*
X12505Y25414*
X12319Y25271*
X12177Y25086*
X12087Y24870*
X12073Y24764*
X12826*
Y25517*
G37*
G36*
X3428Y26412D02*
X3166Y26378D01*
X2922Y26276*
X2712Y26116*
X2551Y25906*
X2450Y25662*
X2416Y25399*
X2450Y25137*
X2551Y24893*
X2712Y24683*
X2922Y24522*
X3166Y24421*
X3428Y24387*
X3691Y24421*
X3935Y24522*
X4145Y24683*
X4305Y24893*
X4407Y25137*
X4441Y25399*
X4407Y25662*
X4305Y25906*
X4145Y26116*
X3935Y26276*
X3691Y26378*
X3428Y26412*
G37*
G36*
X13833Y24510D02*
X13080D01*
Y23758*
X13186Y23771*
X13402Y23861*
X13587Y24003*
X13730Y24189*
X13820Y24405*
X13833Y24510*
G37*
G36*
X12826D02*
X12073D01*
X12087Y24405*
X12177Y24189*
X12319Y24003*
X12505Y23861*
X12721Y23771*
X12826Y23758*
Y24510*
G37*
G36*
X3555Y23855D02*
Y22986D01*
X4424*
X4407Y23122*
X4305Y23366*
X4145Y23576*
X3935Y23736*
X3691Y23838*
X3555Y23855*
G37*
G36*
X3301D02*
X3166Y23838D01*
X2922Y23736*
X2712Y23576*
X2551Y23366*
X2450Y23122*
X2433Y22986*
X3301*
Y23855*
G37*
G36*
X4424Y22732D02*
X3555D01*
Y21864*
X3691Y21881*
X3935Y21982*
X4145Y22143*
X4305Y22353*
X4407Y22597*
X4424Y22732*
G37*
G36*
X3301D02*
X2433D01*
X2450Y22597*
X2551Y22353*
X2712Y22143*
X2922Y21982*
X3166Y21881*
X3301Y21864*
Y22732*
G37*
G36*
X4432Y21323D02*
X2424D01*
Y19315*
X4432*
Y21323*
G37*
G36*
X7111Y16373D02*
Y15620D01*
X7864*
X7851Y15726*
X7761Y15942*
X7618Y16127*
X7433Y16270*
X7217Y16360*
X7111Y16373*
G37*
G36*
X6857D02*
X6752Y16360D01*
X6536Y16270*
X6350Y16127*
X6208Y15942*
X6118Y15726*
X6105Y15620*
X6857*
Y16373*
G37*
G36*
X3555Y16235D02*
Y15366D01*
X4424*
X4407Y15502*
X4305Y15746*
X4145Y15956*
X3935Y16116*
X3691Y16218*
X3555Y16235*
G37*
G36*
X3301D02*
X3166Y16218D01*
X2922Y16116*
X2712Y15956*
X2551Y15746*
X2450Y15502*
X2433Y15366*
X3301*
Y16235*
G37*
G36*
X7864Y15366D02*
X7111D01*
Y14613*
X7217Y14627*
X7433Y14717*
X7618Y14859*
X7761Y15045*
X7851Y15261*
X7864Y15366*
G37*
G36*
X6857D02*
X6105D01*
X6118Y15261*
X6208Y15045*
X6350Y14859*
X6536Y14717*
X6752Y14627*
X6857Y14613*
Y15366*
G37*
G36*
X4424Y15112D02*
X3555D01*
Y14244*
X3691Y14261*
X3935Y14362*
X4145Y14523*
X4305Y14733*
X4407Y14977*
X4424Y15112*
G37*
G36*
X3301D02*
X2433D01*
X2450Y14977*
X2551Y14733*
X2712Y14523*
X2922Y14362*
X3166Y14261*
X3301Y14244*
Y15112*
G37*
G36*
X4432Y13703D02*
X2424D01*
Y11695*
X4432*
Y13703*
G37*
G36*
X3428Y4302D02*
X3085Y4268D01*
X2754Y4168*
X2449Y4005*
X2182Y3786*
X1963Y3519*
X1800Y3214*
X1700Y2883*
X1666Y2539*
X1700Y2196*
X1800Y1865*
X1963Y1560*
X2182Y1293*
X2449Y1074*
X2754Y911*
X3085Y811*
X3428Y777*
X3772Y811*
X4103Y911*
X4408Y1074*
X4675Y1293*
X4894Y1560*
X5057Y1865*
X5157Y2196*
X5191Y2539*
X5157Y2883*
X5057Y3214*
X4894Y3519*
X4675Y3786*
X4408Y4005*
X4103Y4168*
X3772Y4268*
X3428Y4302*
G37*
%LNpcb1-3*%
%LPD*%
G54D13*
X3428Y25399D03*
Y22859D03*
Y15239D03*
X28828Y5079D03*
Y20319D03*
Y22859D03*
Y17779D03*
Y15239D03*
Y12699D03*
Y10159D03*
G54D14*
X3428Y20319D03*
Y12699D03*
X28828Y2539D03*
Y25399D03*
G54D15*
X3428Y2539D03*
X23748Y25399D03*
X21208Y2539D03*
G54D16*
X6984Y15493D03*
X19303Y10794D03*
X12953Y24637D03*
X21843Y19557D03*
M02*