%FSLAX23Y23*%
%MOMM*%
%SFA1B1*%

%IPPOS*%
%ADD10R,0.990598X0.304799*%
%ADD11R,1.699997X1.099998*%
%ADD12C,0.304799*%
%ADD13C,1.499997*%
%ADD14R,1.499997X1.499997*%
%ADD15C,2.999994*%
%ADD16C,1.269997*%
%LNpcb1-1*%
%LPD*%
G36*
X31970Y414D02*
X12191D01*
Y12247*
X12235Y12275*
X12598Y12639*
X12715Y12590*
Y12147*
X13338*
Y12553*
X13465*
Y12680*
X14214*
Y12826*
X14350*
X18424Y19245*
X18551Y19208*
Y17997*
Y17347*
Y16697*
Y16047*
Y15397*
Y14747*
Y14097*
Y13447*
Y12797*
Y12147*
X18886*
Y11584*
X18855Y11571*
X18669Y11428*
X18527Y11243*
X18437Y11027*
X18407Y10794*
X18437Y10562*
X18527Y10346*
X18669Y10160*
X18855Y10018*
X18889Y10004*
Y9392*
X17818*
Y9003*
X17613*
Y9392*
X15405*
Y7784*
X17613*
Y8174*
X17818*
Y7784*
X20026*
Y9392*
X19718*
Y10004*
X19752Y10018*
X19937Y10160*
X20080Y10346*
X20170Y10562*
X20200Y10794*
X20170Y11027*
X20080Y11243*
X19937Y11428*
X19752Y11571*
X19715Y11586*
Y12147*
X20049*
Y12797*
Y13447*
Y14089*
X24567*
X27968Y10688*
X27951Y10666*
X27850Y10422*
X27816Y10159*
X27850Y9897*
X27951Y9653*
X28112Y9443*
X28322Y9282*
X28566Y9181*
X28828Y9147*
X29091Y9181*
X29335Y9282*
X29545Y9443*
X29705Y9653*
X29807Y9897*
X29841Y10159*
X29807Y10422*
X29705Y10666*
X29545Y10876*
X29335Y11036*
X29091Y11138*
X28828Y11172*
X28676Y11152*
X25206Y14622*
X25255Y14739*
X26203*
X27888Y13054*
X27850Y12962*
X27816Y12699*
X27850Y12437*
X27951Y12193*
X28112Y11983*
X28322Y11822*
X28566Y11721*
X28828Y11687*
X29091Y11721*
X29335Y11822*
X29545Y11983*
X29705Y12193*
X29807Y12437*
X29841Y12699*
X29807Y12962*
X29705Y13206*
X29545Y13416*
X29335Y13576*
X29091Y13678*
X28828Y13712*
X28566Y13678*
X28474Y13640*
X26842Y15272*
X26891Y15389*
X27739*
X27823Y15293*
X27816Y15239*
X27850Y14977*
X27951Y14733*
X28112Y14523*
X28322Y14362*
X28566Y14261*
X28828Y14227*
X29091Y14261*
X29335Y14362*
X29545Y14523*
X29705Y14733*
X29807Y14977*
X29841Y15239*
X29807Y15502*
X29705Y15746*
X29545Y15956*
X29335Y16116*
X29091Y16218*
X28828Y16252*
X28566Y16218*
X28449Y16169*
X28423Y16186*
X28265Y16218*
X26241*
X26192Y16335*
X27159Y17302*
X27940*
X27951Y17273*
X28112Y17063*
X28322Y16902*
X28566Y16801*
X28828Y16767*
X29091Y16801*
X29335Y16902*
X29545Y17063*
X29705Y17273*
X29807Y17517*
X29841Y17779*
X29807Y18042*
X29705Y18286*
X29545Y18496*
X29335Y18656*
X29091Y18758*
X28828Y18792*
X28566Y18758*
X28322Y18656*
X28112Y18496*
X27951Y18286*
X27887Y18130*
X26987*
X26828Y18099*
X26694Y18009*
X25637Y16952*
X25634Y16953*
X25592Y17091*
X28105Y19604*
X28112Y19603*
X28322Y19442*
X28566Y19341*
X28828Y19307*
X29091Y19341*
X29335Y19442*
X29545Y19603*
X29705Y19813*
X29807Y20057*
X29841Y20319*
X29807Y20582*
X29705Y20826*
X29545Y21036*
X29335Y21196*
X29091Y21298*
X28828Y21332*
X28566Y21298*
X28322Y21196*
X28210Y21110*
X28095Y21182*
X28100Y21208*
Y21926*
X28228Y22054*
X28322Y21982*
X28566Y21881*
X28828Y21847*
X29091Y21881*
X29335Y21982*
X29545Y22143*
X29705Y22353*
X29807Y22597*
X29841Y22859*
X29807Y23122*
X29705Y23366*
X29545Y23576*
X29335Y23736*
X29091Y23838*
X28828Y23872*
X28566Y23838*
X28322Y23736*
X28112Y23576*
X27951Y23366*
X27850Y23122*
X27816Y22859*
X27821Y22819*
X27582Y22580*
X27465Y22629*
Y23450*
X28410Y24395*
X29832*
Y26403*
X27824*
Y24981*
X26757Y23914*
X26668Y23780*
X26636Y23621*
Y21761*
X23693Y18818*
X22529*
X22494Y18945*
X22620Y19109*
X22710Y19325*
X22740Y19557*
X22710Y19790*
X22620Y20006*
X22477Y20191*
X22292Y20334*
X22076Y20424*
X21843Y20454*
X21611Y20424*
X21395Y20334*
X21209Y20191*
X21067Y20006*
X20977Y19790*
X20957Y19638*
X20787Y19468*
X20382*
X20331Y19584*
X21335Y20700*
Y28414*
X31970*
Y414*
G37*
G36*
X2450Y22597D02*
X2551Y22353D01*
X2712Y22143*
X2922Y21982*
X3166Y21881*
X3428Y21847*
X3691Y21881*
X3935Y21982*
X4145Y22143*
X4305Y22353*
X4407Y22597*
X4441Y22600*
X7893*
X9935Y20559*
X9886Y20441*
X9739*
X9690*
X8762*
Y19637*
Y18833*
X9690*
X9817*
X9866*
X10794*
Y19637*
X10921*
Y19764*
X12025*
Y20060*
X12715*
Y19831*
X13465*
X14214*
Y20060*
X14425*
X14469Y20069*
X14515Y20077*
X14519Y20079*
X14524Y20080*
X14562Y20106*
X14601Y20129*
X14669Y20192*
X18481*
X18490Y20148*
X18499Y20099*
X18500Y20098*
X18500Y20097*
X18527Y20056*
X18551Y20020*
Y19894*
X18249Y19430*
X18222Y19407*
X18215Y19394*
X18205Y19384*
X17631Y18480*
X16763Y17144*
X15803Y15667*
X14697Y13856*
X14336Y13287*
X14214Y13322*
Y14097*
Y14747*
Y15397*
Y16047*
Y16697*
Y17347*
Y17997*
Y18647*
Y19297*
Y19576*
X13465*
X12715*
Y19297*
Y18647*
Y17997*
Y17347*
Y16218*
X12227*
X12025Y16419*
Y17741*
X9817*
X9739*
X7531*
Y16419*
X7397Y16285*
X7217Y16360*
X6984Y16390*
X6752Y16360*
X6536Y16270*
X6350Y16127*
X6208Y15942*
X6118Y15726*
X6088Y15493*
X6118Y15261*
X6208Y15045*
X6350Y14859*
X6536Y14717*
X6752Y14627*
X6984Y14597*
X7217Y14627*
X7433Y14717*
X7618Y14859*
X7761Y15045*
X7851Y15261*
X7881Y15493*
X7869Y15585*
X8417Y16133*
X9739*
X9817*
X11139*
X11763Y15510*
X11897Y15421*
X11973Y15405*
X12015Y15268*
X11898Y15151*
X11809Y15017*
X11777Y14858*
Y13588*
X11809Y13430*
X11898Y13295*
X11991Y13203*
X11770Y12983*
X4432*
Y13703*
X2424*
Y11695*
X4432*
Y12154*
X11932*
Y414*
X414*
Y22600*
X2416*
X2439Y22605*
X2450Y22597*
G37*
G36*
X21076Y20800D02*
X20176Y19800D01*
X20049Y19849*
Y20110*
X19427*
Y19704*
X19173*
Y20110*
X18825*
X18739Y20196*
X18741Y20324*
X18827Y20404*
X18883*
Y21081*
X17779*
Y21208*
X17652*
Y22012*
X15747*
Y21208*
X15620*
Y21081*
X14516*
Y20446*
Y20404*
X14425Y20319*
X12025*
Y20441*
X10418*
X8000Y22859*
X4441*
X4407Y23122*
X4305Y23366*
X4145Y23576*
X3935Y23736*
X3691Y23838*
X3428Y23872*
X3166Y23838*
X2922Y23736*
X2712Y23576*
X2551Y23366*
X2450Y23122*
X2416Y22859*
X414*
Y28414*
X21076*
Y20800*
G37*
%LNpcb1-2*%
%LPC*%
G36*
X23748Y27162D02*
X23405Y27128D01*
X23074Y27028*
X22769Y26865*
X22502Y26646*
X22283Y26379*
X22120Y26074*
X22020Y25743*
X21986Y25399*
X22020Y25056*
X22120Y24725*
X22283Y24420*
X22502Y24153*
X22769Y23934*
X23074Y23771*
X23405Y23671*
X23748Y23637*
X24092Y23671*
X24423Y23771*
X24728Y23934*
X24995Y24153*
X25214Y24420*
X25377Y24725*
X25477Y25056*
X25511Y25399*
X25477Y25743*
X25377Y26074*
X25214Y26379*
X24995Y26646*
X24728Y26865*
X24423Y27028*
X24092Y27128*
X23748Y27162*
G37*
G36*
X14214Y12426D02*
X13592D01*
Y12147*
X14214*
Y12426*
G37*
G36*
X20026Y6692D02*
X19049D01*
Y6015*
X20026*
Y6692*
G37*
G36*
X18795D02*
X17818D01*
Y6015*
X18795*
Y6692*
G37*
G36*
X17613D02*
X16636D01*
Y6015*
X17613*
Y6692*
G37*
G36*
X16382D02*
X15405D01*
Y6015*
X16382*
Y6692*
G37*
G36*
X20026Y5761D02*
X19049D01*
Y5084*
X20026*
Y5761*
G37*
G36*
X18795D02*
X17818D01*
Y5084*
X18795*
Y5761*
G37*
G36*
X17613D02*
X16636D01*
Y5084*
X17613*
Y5761*
G37*
G36*
X16382D02*
X15405D01*
Y5084*
X16382*
Y5761*
G37*
G36*
X28828Y6092D02*
X28566Y6058D01*
X28322Y5956*
X28112Y5796*
X27951Y5586*
X27850Y5342*
X27816Y5079*
X27850Y4817*
X27951Y4573*
X28112Y4363*
X28322Y4202*
X28566Y4101*
X28828Y4067*
X29091Y4101*
X29335Y4202*
X29545Y4363*
X29705Y4573*
X29807Y4817*
X29841Y5079*
X29807Y5342*
X29705Y5586*
X29545Y5796*
X29335Y5956*
X29091Y6058*
X28828Y6092*
G37*
G36*
X29832Y3543D02*
X28955D01*
Y2666*
X29832*
Y3543*
G37*
G36*
X28701D02*
X27824D01*
Y2666*
X28701*
Y3543*
G37*
G36*
X29832Y2412D02*
X28955D01*
Y1535*
X29832*
Y2412*
G37*
G36*
X28701D02*
X27824D01*
Y1535*
X28701*
Y2412*
G37*
G36*
X21208Y4302D02*
X20865Y4268D01*
X20534Y4168*
X20229Y4005*
X19962Y3786*
X19743Y3519*
X19580Y3214*
X19480Y2883*
X19446Y2539*
X19480Y2196*
X19580Y1865*
X19743Y1560*
X19962Y1293*
X20229Y1074*
X20534Y911*
X20865Y811*
X21208Y777*
X21552Y811*
X21883Y911*
X22188Y1074*
X22455Y1293*
X22674Y1560*
X22837Y1865*
X22937Y2196*
X22971Y2539*
X22937Y2883*
X22837Y3214*
X22674Y3519*
X22455Y3786*
X22188Y4005*
X21883Y4168*
X21552Y4268*
X21208Y4302*
G37*
G36*
X4432Y21323D02*
X3555D01*
Y20446*
X4432*
Y21323*
G37*
G36*
X3301D02*
X2424D01*
Y20446*
X3301*
Y21323*
G37*
G36*
X8508Y20441D02*
X7531D01*
Y19764*
X8508*
Y20441*
G37*
G36*
X4432Y20192D02*
X3555D01*
Y19315*
X4432*
Y20192*
G37*
G36*
X3301D02*
X2424D01*
Y19315*
X3301*
Y20192*
G37*
G36*
X12025Y19510D02*
X11048D01*
Y18833*
X12025*
Y19510*
G37*
G36*
X8508D02*
X7531D01*
Y18833*
X8508*
Y19510*
G37*
G36*
X3428Y16252D02*
X3166Y16218D01*
X2922Y16116*
X2712Y15956*
X2551Y15746*
X2450Y15502*
X2416Y15239*
X2450Y14977*
X2551Y14733*
X2712Y14523*
X2922Y14362*
X3166Y14261*
X3428Y14227*
X3691Y14261*
X3935Y14362*
X4145Y14523*
X4305Y14733*
X4407Y14977*
X4441Y15239*
X4407Y15502*
X4305Y15746*
X4145Y15956*
X3935Y16116*
X3691Y16218*
X3428Y16252*
G37*
G36*
Y4302D02*
X3085Y4268D01*
X2754Y4168*
X2449Y4005*
X2182Y3786*
X1963Y3519*
X1800Y3214*
X1700Y2883*
X1666Y2539*
X1700Y2196*
X1800Y1865*
X1963Y1560*
X2182Y1293*
X2449Y1074*
X2754Y911*
X3085Y811*
X3428Y777*
X3772Y811*
X4103Y911*
X4408Y1074*
X4675Y1293*
X4894Y1560*
X5057Y1865*
X5157Y2196*
X5191Y2539*
X5157Y2883*
X5057Y3214*
X4894Y3519*
X4675Y3786*
X4408Y4005*
X4103Y4168*
X3772Y4268*
X3428Y4302*
G37*
G36*
X3555Y26395D02*
Y25526D01*
X4424*
X4407Y25662*
X4305Y25906*
X4145Y26116*
X3935Y26276*
X3691Y26378*
X3555Y26395*
G37*
G36*
X3301D02*
X3166Y26378D01*
X2922Y26276*
X2712Y26116*
X2551Y25906*
X2450Y25662*
X2433Y25526*
X3301*
Y26395*
G37*
G36*
X4424Y25272D02*
X3555D01*
Y24404*
X3691Y24421*
X3935Y24522*
X4145Y24683*
X4305Y24893*
X4407Y25137*
X4424Y25272*
G37*
G36*
X3301D02*
X2433D01*
X2450Y25137*
X2551Y24893*
X2712Y24683*
X2922Y24522*
X3166Y24421*
X3301Y24404*
Y25272*
G37*
G36*
X12953Y25534D02*
X12721Y25504D01*
X12505Y25414*
X12319Y25271*
X12177Y25086*
X12087Y24870*
X12057Y24637*
X12087Y24405*
X12177Y24189*
X12319Y24003*
X12505Y23861*
X12721Y23771*
X12953Y23741*
X13186Y23771*
X13402Y23861*
X13587Y24003*
X13730Y24189*
X13744Y24223*
X14516*
Y23104*
X18883*
Y24712*
X15402*
X15184Y24930*
X15050Y25020*
X14891Y25052*
X13744*
X13730Y25086*
X13587Y25271*
X13402Y25414*
X13186Y25504*
X12953Y25534*
G37*
G36*
X18883Y22012D02*
X17906D01*
Y21335*
X18883*
Y22012*
G37*
G36*
X15493D02*
X14516D01*
Y21335*
X15493*
Y22012*
G37*
%LNpcb1-3*%
%LPD*%
G54D10*
X19300Y19704D03*
Y19054D03*
Y18404D03*
Y17754D03*
Y17104D03*
Y16454D03*
Y15803D03*
Y15153D03*
Y14503D03*
Y13853D03*
Y13203D03*
Y12553D03*
X13465D03*
Y13203D03*
Y13853D03*
Y14503D03*
Y15153D03*
Y15803D03*
Y16454D03*
Y17104D03*
Y17754D03*
Y18404D03*
Y19054D03*
Y19704D03*
G54D11*
X15620Y23908D03*
Y21208D03*
X18922Y8588D03*
Y5888D03*
X8635Y16937D03*
Y19637D03*
X16509Y8588D03*
Y5888D03*
X17779Y23908D03*
Y21208D03*
X10921Y16937D03*
Y19637D03*
G54D12*
X19300Y12553D02*
Y13203D01*
X13454Y18414D02*
X13465Y18404D01*
Y18425D02*
Y19054D01*
X12577Y13203D02*
X13465D01*
X12191Y13588D02*
X12577Y13203D01*
X12191Y13588D02*
Y14858D01*
X12486Y15153*
X13465*
X11942Y12568D02*
X12577Y13203D01*
X8635Y16937D02*
X10921D01*
X12056Y15803D02*
X13465D01*
X10921Y16937D02*
X12056Y15803D01*
X6984Y15493D02*
X7191D01*
X8635Y16937*
X15620Y21208D02*
X17779D01*
X15620Y23908D02*
X17779D01*
X14891Y24637D02*
X15620Y23908D01*
X19300Y19054D02*
X20959D01*
X27685Y22097D02*
X28447Y22859D01*
X27050Y23621D02*
X28828Y25399D01*
X19300Y18404D02*
X23865D01*
X27685Y21208D02*
Y22097D01*
X23865Y18404D02*
X27050Y21589D01*
Y23621*
X19300Y17754D02*
X24231D01*
X27685Y21208*
X19300Y17104D02*
X25018D01*
X28234Y20319*
X28828*
X25725Y16454D02*
X26987Y17716D01*
X28765*
X19300Y15803D02*
X28265D01*
X19300Y14503D02*
X24739D01*
X28828Y10413*
Y10159D02*
Y10413D01*
X19300Y15153D02*
X26375D01*
X28407Y13121*
X28828*
X19300Y16454D02*
X25725D01*
X3560Y12568D02*
X11942D01*
X10921Y19637D02*
X11541D01*
X16509Y8588D02*
X18922D01*
X19303Y8969*
X19300Y10798D02*
Y12553D01*
X19303Y8969D02*
Y10794D01*
X12953Y24637D02*
X14891D01*
X20959Y19054D02*
X21462Y19557D01*
X21843*
G54D13*
X3428Y25399D03*
Y22859D03*
Y15239D03*
X28828Y5079D03*
Y20319D03*
Y22859D03*
Y17779D03*
Y15239D03*
Y12699D03*
Y10159D03*
G54D14*
X3428Y20319D03*
Y12699D03*
X28828Y2539D03*
Y25399D03*
G54D15*
X3428Y2539D03*
X23748Y25399D03*
X21208Y2539D03*
G54D16*
X6984Y15493D03*
X19303Y10794D03*
X12953Y24637D03*
X21843Y19557D03*
M02*